<?xml version="1.0" encoding="utf-8"?>
<!-- Generator: Adobe Illustrator 15.1.0, SVG Export Plug-In . SVG Version: 6.00 Build 0)  -->
<!DOCTYPE svg PUBLIC "-//W3C//DTD SVG 1.1//EN" "http://www.w3.org/Graphics/SVG/1.1/DTD/svg11.dtd">
<svg version="1.1" xmlns="http://www.w3.org/2000/svg" xmlns:xlink="http://www.w3.org/1999/xlink" x="0px" y="0px" width="550px"
	 height="400px" viewBox="0 0 550 400" enable-background="new 0 0 550 400" xml:space="preserve">
<g id="Colors">
	<path fill-rule="evenodd" clip-rule="evenodd" fill="#0000AD" d="M403.8,85.35c-2.323-0.703-5.157-1.436-8.5-2.2
		c-11.467-2.6-21.55-3.683-30.25-3.25c-6.167,0.333-13.167,1.35-21,3.05c-0.551,0.12-1.084,0.237-1.601,0.35
		c-0.816-0.1-1.334-0.15-1.549-0.15c-0.4,0-1.567,0.217-3.5,0.65c-1.9,0.4-3.067,0.6-3.5,0.6c-0.902,0-1.604-0.192-2.101-0.575
		c-2.933,2.085-4.399,3.81-4.399,5.175c0,0.276-0.143,0.959-0.426,2.05c-3.55,3.509-5.324,8.659-5.324,15.45
		c-0.051,0.299-0.084,0.59-0.101,0.875c-0.353,1.041-0.736,1.799-1.149,2.275c-1.301,1.5-5.518,4.117-12.65,7.85
		c-6.867,3.566-10.934,6.333-12.2,8.3c-0.872,1.343-1.697,2.618-2.476,3.825c-0.976,0.622-2,1.513-3.074,2.675
		c-3.121,3.333-5.338,7.275-6.65,11.825c-0.637,1.236-1.329,2.636-2.074,4.2c-0.096,0.336-0.188,0.67-0.275,1
		c-1.9,4.703-2.85,9.678-2.85,14.925c0,0.566,0.166,1.117,0.5,1.65c0.233,0.39,0.525,0.707,0.875,0.95
		c-0.084,0.382-0.125,0.682-0.125,0.9c0,3.833,0.967,7.633,2.899,11.4c0.761,1.505,1.636,2.83,2.625,3.975
		c1.268,2.169,2.743,3.936,4.425,5.3c0.635-0.233,1.344-0.5,2.125-0.8c1.927,0.683,4.068,1.025,6.426,1.025
		c2.724,0,4.757-1.225,6.1-3.675c0.395,0.046,0.778,0.104,1.15,0.175c0.459-0.94,0.942-2.115,1.449-3.525
		c1.937-1.625,3.303-3.966,4.1-7.025c0.668-2.667,1.334-6.567,2-11.7c0.32-1.133,1.18-3.875,2.576-8.225
		c0.385-0.812,0.793-1.753,1.225-2.825c0.9-2.3,1.949-5.2,3.15-8.7c0.197-0.495,1.98-3.044,5.35-7.65
		c0.126-0.113,0.26-0.229,0.4-0.35c3-2.567,6.166-4.15,9.5-4.75c1.484-0.255,2.792-0.489,3.924-0.7c0.588,0.133,1.28,0.2,2.076,0.2
		c0.433,0,1.683-0.2,3.75-0.6c0.938-0.194,1.705-0.344,2.299-0.45c0,0.081,0,0.164,0,0.25c0,0.466,1.018,1.783,3.051,3.95
		c1.316,1.391,2.559,2.391,3.725,3c0.166,1.523,0.258,3.357,0.275,5.5c0.066,4.533,0.233,7.483,0.5,8.85c0.5,2.667,1.633,4,3.4,4
		c0.092,0,0.184,0,0.274,0c0.879,0.707,2.153,1.348,3.825,1.925c-0.049,0.309-0.099,0.609-0.15,0.9
		c0.714,0.088,1.514,0.263,2.4,0.525c1.233,0.367,3.267,1.033,6.1,2c2.566,0.8,4.634,1.233,6.2,1.3
		c0.493,0.034,0.968,0.093,1.425,0.175c0.179,0.107,0.337,0.216,0.475,0.325c3.067,2.4,5.4,7.017,7,13.85
		c0.4,1.6,0.717,4.167,0.951,7.7c0.399,5.1,0.649,8.083,0.75,8.95c0.482,4.455,1.342,7.505,2.574,9.149
		c-0.137,2.018-0.479,3.802-1.025,5.351c-1.359,3.769-3.984,6.502-7.875,8.2c-2.022,0.699-4.363,1.05-7.024,1.05
		c-2.792,0-5.149-0.05-7.075-0.149c-0.264-0.162-0.539-0.328-0.824-0.5c-1.854-1.137-3.471-2.244-4.851-3.326
		c-0.405-0.512-0.839-1.054-1.3-1.625c-1.363-1.668-2.613-3.168-3.75-4.5c-0.033-0.049-0.066-0.099-0.1-0.149
		c-0.971-1.462-1.887-2.929-2.75-4.399c-0.083,0-0.166,0-0.25,0c-0.367,0-0.759-0.15-1.176-0.451
		c-0.571-0.702-1.13-1.352-1.675-1.95c-0.509-0.777-1.226-1.911-2.149-3.4c-2.264-3.322-4.797-5.214-7.601-5.675
		c-0.145-0.141-0.278-0.266-0.399-0.375c-1.734-1.6-5.25-2.566-10.551-2.9c-1.982-0.125-3.623-0.042-4.925,0.25
		c-6.454-2.344-12.187,0.523-17.2,8.6c-2.116,1.945-3.175,4.078-3.175,6.4c0,1.129,0.325,2.236,0.976,3.324
		c-0.084,0.174-0.125,0.314-0.125,0.426c0,0.287,0.616,0.854,1.85,1.699c0.789,0.555,1.83,1.222,3.125,2
		c0.678,0.402,1.42,0.836,2.225,1.301c0.782,0.449,1.523,0.883,2.225,1.299c0.229-0.212,0.529-0.354,0.9-0.424
		c0.539-0.113,1.23-0.071,2.075,0.125c2.3,0.566,3.45,1.717,3.45,3.449c0.099,1.11,0.057,2.178-0.125,3.2
		c0.54,0.715,1.016,1.373,1.425,1.976c-0.81,0.318-1.71,0.743-2.7,1.274c-0.703,0.891-1.645,1.433-2.824,1.625
		c-2.896,1.735-6.188,3.894-9.875,6.476c-2.467,1.033-4.101,3.433-4.9,7.199c-0.014,0.06-0.029,0.117-0.051,0.176
		c-1.6,1.395-2.399,2.986-2.399,4.774c0,0.854,0.075,1.737,0.226,2.649c-1.084,1.01-1.625,2.094-1.625,3.25
		c2.487,5.18,5.055,8.605,7.699,10.275v0.025c0,0.833,0.634,1.717,1.9,2.65c1.633,1.232,3.699,1.85,6.199,1.85
		c2.134,0,3.851-0.467,5.15-1.4c0.076-0.053,0.15-0.102,0.225-0.15c1.824-0.209,4.182-0.608,7.076-1.199
		c1.811,0.121,3.543,0.521,5.199,1.199c0.626,0.248,1.193,0.507,1.7,0.775c0.437,0.951,0.853,2.11,1.25,3.475
		c0.38,1.314,0.921,3.314,1.625,6c-0.146,0.667-0.237,1.15-0.274,1.451v4.799h2.699c1.518,2.534,3.4,3.801,5.65,3.801
		c5.426,0,9.693-2.691,12.8-8.075c0.064-0.071,0.132-0.146,0.2-0.226c1.3-1.5,1.949-2.649,1.949-3.449
		c0-0.086-0.058-0.261-0.174-0.525c0.693-1.789,1.302-3.781,1.824-5.975c0.901-3.784,1.501-8.092,1.801-12.926
		c0.279-0.729,0.563-1.445,0.85-2.149c-0.287,0.106-0.537,0.198-0.75,0.274c0.03-0.799,0.055-1.615,0.074-2.449
		c0.074-0.124,0.149-0.258,0.226-0.4c1.5-2.699,2.3-4.116,2.399-4.25c0.319-0.318,1.428-1.177,3.326-2.574
		c4.932-2.234,8.898-4.042,11.899-5.426c0.167,0.083,0.342,0.166,0.524,0.25c0.684-0.466,1.885-0.6,3.601-0.4
		c2.866,0.301,4.3,1.15,4.3,2.551c0,0.3-0.15,0.583-0.449,0.85c-0.128,0.127-0.262,0.228-0.4,0.301
		c0.477,0.207,0.902,0.39,1.275,0.549c0.354,0.523,0.729,1.074,1.125,1.65c4.467,6.5,7,10.217,7.6,11.15
		c1.623,2.543,3.589,5.01,5.9,7.4c0.857,1.999,1.824,3.749,2.899,5.25c0.056,0.077,0.114,0.152,0.175,0.225
		c0.531-0.371,1.39-0.047,2.575,0.975c0.357,0.307,0.774,0.715,1.25,1.225c0.353-0.479,1.003-0.553,1.95-0.225
		c0.084,0.033,0.167,0.066,0.25,0.1c1.033,0.4,2.3,1.217,3.8,2.451c0.048,0.037,0.098,0.078,0.149,0.125
		c0.178,0.101,0.353,0.2,0.525,0.299c0.777,0.395,2.012,0.887,3.7,1.476c0.087,0.033,0.179,0.066,0.274,0.101
		c1.508,0.552,2.449,1.068,2.826,1.549c3.294-0.071,6.044-0.688,8.25-1.85c2.761-0.878,4.877-1.645,6.35-2.3
		c0.918,0.208,1.609,0.691,2.074,1.45c0.254,0.405,0.412,0.822,0.476,1.25c-0.22,0.589-0.429,1.223-0.625,1.9
		c-0.017,0.055-0.033,0.113-0.05,0.174c-0.871,1.848-2.555,5.223-5.051,10.125c0,0.146,0.067,0.404,0.201,0.775
		c-0.264,0.531-0.547,1.089-0.851,1.676c-1.866,3.766-5.417,9.066-10.649,15.899c-4.634,6.134-6.951,9.333-6.951,9.601
		c0,0.732,0.184,1.383,0.551,1.949c0.306,0.502,0.723,0.861,1.25,1.075c-1.396,1.927-2.714,3.693-3.95,5.3
		c-0.022,0.107-0.048,0.216-0.075,0.325c-1.848,1.816-4.057,4.566-6.625,8.25c-0.592,0.847-1.15,1.647-1.675,2.399
		c-2.208,1.168-4.75,1.75-7.625,1.75c-1.83,0-3.472-0.016-4.925-0.049c-6.158-1.297-11.217-3.18-15.176-5.65
		c-0.791-0.503-1.533-1.045-2.225-1.625c-1.088-1.371-2.296-3.18-3.625-5.426c-1.475-2.726-2.725-5.018-3.75-6.875
		c-1.014-2.73-1.797-4.773-2.35-6.125c-1.1-2.666-3.117-4.816-6.051-6.449c-1.043-0.252-2.102-0.493-3.174-0.725
		c-1.602-0.847-3.227-1.371-4.875-1.576c-3.1-0.156-5.865-0.314-8.301-0.475c-0.236-0.025-0.47-0.051-0.699-0.074
		c-1.995-0.207-3.729-0.332-5.201-0.375c-0.775-0.079-1.492-0.154-2.149-0.226c-1.465-0.148-2.765-0.332-3.899-0.55
		c-0.589,0.135-1.147,0.268-1.676,0.4c-0.74-0.008-1.465,0.008-2.175,0.049c-5.123,0.303-8.698,1.669-10.726,4.101
		c-0.235,0.116-0.461,0.233-0.674,0.351c-0.189,0.174-0.389,0.357-0.601,0.549c-0.175,0.159-0.341,0.309-0.5,0.451
		c0.067,0.438,0.101,0.972,0.101,1.6c0,0.117,0,0.233,0,0.35c-0.025,0.838-0.125,1.639-0.301,2.4
		c-0.015,0.076-0.031,0.15-0.05,0.225c-0.216,0.969-0.532,1.627-0.95,1.975c0.318,1.338,0.801,2.438,1.45,3.301
		c0.061,1.034,0.944,2.034,2.649,3c2.268,1.333,3.717,2.416,4.351,3.25c0.146,0.195,0.371,0.578,0.675,1.15
		c2.35,2.455,3.525,4.805,3.525,7.049c0,0.022,0,0.048,0,0.076c0.082,0.076,0.166,0.152,0.25,0.225
		c-0.097,0.127-0.196,0.252-0.301,0.375c-0.043,0.426-0.143,0.818-0.299,1.175c-0.256,0.628-0.623,1.036-1.101,1.226
		c-0.165,0.27-0.332,0.545-0.5,0.824c-0.567,1.797-1.542,3.689-2.925,5.676c-1.314,1.185-3.039,2.66-5.176,4.424
		c-3.566,2.867-6.082,5.234-7.549,7.101c-2.301,2.899-3.451,5.817-3.451,8.75c0,1.167,0.467,3.366,1.4,6.601
		c0.244,0.805,0.47,1.529,0.676,2.174c-0.12,0.031-0.245,0.057-0.375,0.076c0.253,0.392,0.52,0.792,0.799,1.199
		c0.371,1.042,0.67,1.775,0.9,2.2c1.035,1.726,2.636,3.567,4.801,5.524c1.687,2.546,2.67,4.579,2.949,6.101
		c1.434,0.246,2.15,1.005,2.15,2.274c0,0.701-0.301,1.234-0.9,1.601c-0.467,0.3-1.033,0.45-1.699,0.45
		c-0.871,0-1.563-0.167-2.076-0.5c-2.979,1.412-8.487,2.412-16.524,3c-6.767,0.5-15.483,0.967-26.15,1.4h-16
		c-1.1-0.301-3.1-0.384-6-0.25c-0.133,0.366-0.517,0.717-1.15,1.049c-0.633,0.334-1.25,0.5-1.85,0.5c-0.267,0-3.033-0.799-8.3-2.399
		c-5.167-1.601-8.184-2.566-9.05-2.899c-0.833-0.334-3.816-1.051-8.95-2.15c-0.713-0.162-1.313-0.396-1.8-0.7
		c-1.222,0.101-2.605,0.149-4.15,0.149c-8.467,0-16.217-2.25-23.25-6.75c-1.388-0.879-2.646-1.788-3.775-2.725
		c-0.378,0.117-0.786,0.176-1.225,0.176c-1.3,0-2.883-1.051-4.75-3.15c-0.933-1.066-1.883-2.267-2.85-3.6
		c-0.047-0.047-0.63-0.506-1.75-1.375c0.367-0.705,0.55-1.246,0.55-1.625c-0.806-1.432-1.606-2.939-2.4-4.525
		c-0.12-0.223-0.237-0.448-0.35-0.676c-0.42-0.831-0.837-1.682-1.25-2.549c-2.052-4.309-3.31-8.142-3.775-11.5
		c0.317-0.857,0.725-1.907,1.225-3.15c1.2-2.967,1.8-4.5,1.8-4.6c0-0.135-0.034-0.26-0.1-0.375c1.125-1.991,2.392-4.399,3.8-7.226
		c4.5-9.033,6.75-13.95,6.75-14.75c0-0.933-0.167-1.7-0.5-2.3c-0.394-0.695-0.96-0.962-1.7-0.801
		c-0.421-2.641-1.796-4.698-4.125-6.174c-2.468-2.451-6.16-3.81-11.075-4.076V297.9l-0.025,0.049
		c-0.578-0.032-1.178-0.049-1.8-0.049c0.301,0.008,0.701,0.133,1.2,0.375c-1.104,0.35-3.688,0.767-7.75,1.25
		c-1.734,0.216-3.734,0.44-6,0.674c-1.582,0.16-3.291,0.326-5.125,0.5c-3.214,0.314-6.447,0.613-9.7,0.9
		c-0.283,0.342-0.667,0.676-1.15,1c-3.208,0.467-5.358,0.7-6.45,0.7c-0.766,0-1.924-0.149-3.475-0.45
		c-0.107-0.082-0.208-0.165-0.3-0.25c-0.15,0.033-0.308,0.066-0.475,0.1c-0.54-0.12-1.123-0.254-1.75-0.399
		c-2.867-0.7-4.684-1.05-5.45-1.05c-1.01,0-1.777,0.199-2.3,0.6c-3.136-1.242-5.736-3.559-7.8-6.949
		c-0.949-1.549-1.69-2.99-2.225-4.326c-1.72-0.643-2.995-2.284-3.825-4.924c-0.567-3.567-0.85-5.4-0.85-5.5
		c0-1.067,0.317-2.15,0.95-3.25c1.4-2.367,2.167-3.701,2.3-4c0.4-0.801,1.217-1.684,2.45-2.65c1.833-1.367,3.4-2.566,4.7-3.6
		c0.367-0.301,1.083-1.533,2.15-3.701c0.351-0.729,0.709-1.295,1.075-1.699c-0.127-0.584-0.252-1.201-0.375-1.85
		c-0.345-1.724-0.611-3.449-0.8-5.176c0.106-0.297,0.272-0.654,0.5-1.074c0.433-0.768,0.633-1.934,0.6-3.5v-5.25
		c0-2.144-0.075-4.127-0.225-5.951c0.171-0.297,0.363-0.59,0.575-0.875c0.296-1.949,0.747-3.924,1.35-5.924
		c0.313-1.053,0.655-2.036,1.025-2.951c0.271-0.326,0.546-0.659,0.825-1c2.266-2.77,4.2-5.152,5.8-7.149
		c4.461-2.846,9.028-5.529,13.7-8.05c2.662-0.082,4.896-1.223,6.7-3.426c1.144-0.534,2.194-0.992,3.15-1.375
		c0.013-2.888,0.18-5.004,0.5-6.35c0.471-2.031,1.304-3.465,2.5-4.3c-1-1.958-2.767-4.35-5.3-7.175
		c-0.886-1.488-2.003-2.672-3.35-3.55c-5.367-5.583-8.05-9.741-8.05-12.475c0-0.207,0-0.407,0-0.6c0.125-0.645,0.258-1.345,0.4-2.1
		c0.162-0.885,0.329-1.718,0.5-2.5c0.463-0.78,1.096-1.163,1.9-1.15c0.798-2.431,2.365-4.78,4.7-7.05
		c0.375-0.363,0.809-0.754,1.3-1.175c1.576-0.812,3.893-2.036,6.95-3.675c6.2-3.333,9.3-5.25,9.3-5.75c0-0.55-0.125-1-0.375-1.35
		c2.443-1.223,4.417-2.339,5.925-3.35c3.967-2.667,5.95-5.317,5.95-7.95c0-1.477-0.075-2.852-0.225-4.125
		c0.117-0.714,0.175-1.439,0.175-2.175c0-1.921-1.117-4.046-3.35-6.375c-3.252-3.993-9.019-6.568-17.3-7.725
		c-2.167-0.6-9.733-2.767-22.7-6.5c-1.708-0.414-3.291-0.764-4.75-1.05c-0.052-0.068-0.102-0.135-0.15-0.2
		c-0.166-0.24-0.457-0.657-0.875-1.25H117.4c-1.267-0.2-2.083-0.8-2.45-1.8c-0.1-0.3-0.15-0.85-0.15-1.65
		c0-2.667,2.133-6.85,6.4-12.55c3.867-5.133,8.567-10.4,14.1-15.8c5.567-5.367,10.267-9.2,14.1-11.5
		c2.249-1.335,3.907-1.943,4.975-1.825c0.532,0.717,1.591,1.075,3.175,1.075c0.633,0,1.667-0.317,3.1-0.95s2.617-0.95,3.55-0.95
		l5,0.1l0.05,1.85c-0.227,0.992-0.36,1.934-0.4,2.825c-0.242,0.243-0.517,0.484-0.825,0.725c0.282,0.816,0.491,1.417,0.625,1.8
		c0.123,0,0.348-0.008,0.675-0.025c0.246,0.389,0.588,0.656,1.025,0.8c0.326,0.75,0.959,1.125,1.9,1.125
		c0.319,0,2.228-0.758,5.725-2.275c0.306,0.007,0.614,0.016,0.925,0.025c0.3,0,0.683,0.133,1.15,0.4
		c0.027,0.014,0.052,0.03,0.075,0.05c1.214-0.601,2.556-1.251,4.025-1.95c2.301-1.107,4.417-2.074,6.35-2.9
		c4.605-2.549,7.322-3.916,8.15-4.1c0.388-0.073,1.554-0.464,3.5-1.175c0.859-0.268,1.776-0.56,2.75-0.875
		c4.333-1.416,7.742-2.583,10.225-3.5c0.424-0.116,0.849-0.232,1.275-0.35c0.171-0.045,0.347-0.095,0.525-0.15
		c-0.005-0.048-0.005-0.098,0-0.15c1.775-0.554,6.117-1.554,13.025-3c1.074-0.226,2.049-0.443,2.925-0.65
		c1.057,0.665,2.332,1.449,3.825,2.35c0.578,0.345,1.128,0.67,1.65,0.975c1.192,1.19,2.825,2.523,4.9,4
		c1.851,1.675,2.926,2.725,3.225,3.15c0.949,0.173,1.874,0.332,2.775,0.475c3.691,1.8,7.258,2.7,10.7,2.7
		c5.2,0,11.083-1.467,17.65-4.4c5.039-2.25,8.146-4.309,9.325-6.175c0.476-0.338,0.95-0.688,1.425-1.05
		c-0.072-0.119-0.148-0.244-0.225-0.375c1.293-0.96,2.684-2.277,4.175-3.95c1.866-2.1,4.033-4.75,6.5-7.95
		c2.733-2.667,6.25-5.733,10.55-9.2c1.887-1.533,3.553-2.866,5-4c0.73-0.437,1.498-0.887,2.301-1.35
		c0.58-0.334,1.181-0.626,1.799-0.875c0.517,0.525,1.25,0.934,2.201,1.225c4.799,1.4,7.732,2.35,8.799,2.85
		c0.867,0.4,3.634,1.333,8.301,2.8c2.835,0.893,5.11,1.551,6.824,1.975c0.225,0.399,0.55,0.741,0.976,1.025
		c0.226,0.151,0.534,0.317,0.925,0.5c0.828,0.677,1.688,1.343,2.575,2c3,2.267,5.101,3.4,6.3,3.4c0.89,0,1.64-0.175,2.25-0.525
		c0.279,0.271,0.563,0.546,0.85,0.825c1.5,1.466,3.951,4.033,7.351,7.7c0.819,0.879,2.353,2.204,4.601,3.975
		c1.22-1.257,3.47-0.632,6.75,1.875c6.1,5.667,9.982,9,11.649,10c1.262,0.646,2.444,1.271,3.55,1.875
		c0.758,1.438,1.591,2.863,2.5,4.275c3.596,5.528,7.246,8.828,10.95,9.9c-0.007,1.615-0.174,2.766-0.5,3.45
		C404.987,84.583,404.487,85.067,403.8,85.35z M314.1,349.35l-0.025-0.025c0.02-0.015,0.037-0.031,0.051-0.049
		C314.115,349.301,314.106,349.326,314.1,349.35z"/>
	<path fill-rule="evenodd" clip-rule="evenodd" fill="#1E4100" d="M154.375,62.675l-0.025-0.025c-0.267-0.333-0.383-0.7-0.35-1.1
		c0-1.233,0.967-2.083,2.9-2.55c1.371-0.246,2.671-0.496,3.9-0.75c-0.025-0.113-0.042-0.23-0.05-0.35
		c0-2.333,6.183-6.783,18.55-13.35c6.233-3.3,12.667-6.467,19.3-9.5c5.9-2.7,10.017-4.55,12.35-5.55c3.833-1.667,7.5-2.934,11-3.8
		c7.7-1.966,22.35-3.667,43.95-5.1h8.35l1.1,0.25l17.6,0.1c3.601,0.1,6.75,0.35,9.451,0.75c4.168,0.603,6.701,1.728,7.6,3.375
		c0.69-0.183,1.357-0.275,2-0.275c1.934,0,2.9,0.583,2.9,1.75c-0.182,0.143-0.365,0.293-0.551,0.45c-1.447,1.134-3.113,2.467-5,4
		c-4.3,3.467-7.816,6.533-10.55,9.2c-2.467,3.2-4.634,5.85-6.5,7.95c-1.491,1.673-2.882,2.99-4.175,3.95
		c-0.27,0.21-0.536,0.402-0.801,0.575c-0.086,0.281-0.219,0.564-0.399,0.85c-1.179,1.866-4.286,3.924-9.325,6.175
		c-6.566,2.934-12.45,4.4-17.65,4.4c-3.442,0-7.008-0.9-10.7-2.7c-1.822-0.882-3.672-1.982-5.55-3.3
		c-0.149-0.105-0.299-0.213-0.45-0.325c-2.075-1.477-3.708-2.81-4.9-4c-0.522-0.305-1.073-0.63-1.65-0.975
		c-1.493-0.901-2.768-1.685-3.825-2.35c-0.876,0.208-1.851,0.424-2.925,0.65c-6.908,1.446-11.25,2.446-13.025,3
		c-0.238,0.076-0.43,0.143-0.575,0.2c-0.381,0.146-0.79,0.295-1.225,0.45c-2.483,0.917-5.892,2.084-10.225,3.5
		c-0.974,0.315-1.891,0.607-2.75,0.875c-5.366,1.683-8.666,2.525-9.9,2.525c-0.387,0-0.729-0.033-1.025-0.1
		c-0.795,0.494-1.387,0.911-1.775,1.25c-1.4,1.233-4.667,2.983-9.8,5.25c-0.591,0.259-1.149,0.501-1.675,0.725
		c-3.498,1.517-5.406,2.275-5.725,2.275c-0.941,0-1.574-0.375-1.9-1.125c-0.438-0.144-0.779-0.411-1.025-0.8
		c-0.302-0.487-0.46-1.162-0.475-2.025c0-0.155,0-0.313,0-0.475c0.04-0.891,0.173-1.833,0.4-2.825l-0.05-1.85l-5-0.1
		c-0.933,0-2.117,0.316-3.55,0.95s-2.467,0.95-3.1,0.95C155.966,63.75,154.907,63.392,154.375,62.675z M342.449,83.3
		c0.517-0.113,1.05-0.23,1.601-0.35c7.833-1.7,14.833-2.716,21-3.05c8.7-0.433,18.783,0.65,30.25,3.25
		c3.343,0.765,6.177,1.498,8.5,2.2c5.267,1.594,7.899,3.027,7.899,4.3c0,0.087-0.008,0.17-0.024,0.25
		c1.602,1.039,2.66,1.706,3.175,2c1.634,1.5,3.316,3.9,5.051,7.2c0.666,1.267,1.899,3.633,3.699,7.1
		c1.634,3.233,2.983,5.8,4.051,7.7c1.85,3.25,3.6,6.692,5.25,10.325c0.305-0.25,0.788-0.125,1.449,0.375
		c1.2,0.933,2.617,2.85,4.25,5.75c4.2,7.4,7,15.767,8.4,25.1c3.733,17.733,5.6,29.184,5.6,34.35c0,2.553-0.225,4.428-0.675,5.625
		c0.048,0.502,0.089,0.994,0.125,1.475c0.13,0.629,0.23,1.362,0.3,2.2c0.033,0.867,0.167,2.283,0.4,4.25
		c0.199,1.934,0.333,3.434,0.4,4.5c0.299,8.566,0.449,14.4,0.449,17.5c0.233,2.9,0.233,5.717,0,8.45c-0.4,5.467-1.65,8.2-3.75,8.2
		c-0.379,0-0.703-0.051-0.975-0.15c-0.676,3.867-1.35,7.65-2.025,11.35c0,0.634-0.533,1.934-1.6,3.9
		c-0.941,1.739-1.666,2.73-2.176,2.975c0.148,0.564,0.207,1.141,0.176,1.726c0,1.601-0.95,2.934-2.85,4
		c-0.393,0.233-0.901,0.483-1.525,0.75c-1.473,0.655-3.589,1.422-6.35,2.3c-0.225,0.063-0.449,0.13-0.676,0.2h-10.675
		c-1.688-0.589-2.923-1.081-3.7-1.476c-0.173-0.099-0.348-0.198-0.525-0.299c-0.052-0.047-0.102-0.088-0.149-0.125
		c-1.5-1.234-2.767-2.051-3.8-2.451c-0.083-0.033-0.166-0.066-0.25-0.1c-2.135-1.474-4.168-3.074-6.1-4.8
		c-0.967-0.875-1.883-1.759-2.75-2.649c-2.312-2.391-4.277-4.857-5.9-7.4c-0.6-0.934-3.133-4.65-7.6-11.15
		c-0.396-0.576-0.771-1.127-1.125-1.65c-0.373-0.159-0.799-0.342-1.275-0.549c0.139-0.073,0.272-0.174,0.4-0.301
		c0.299-0.267,0.449-0.55,0.449-0.85c0-1.4-1.434-2.25-4.3-2.551c-1.716-0.199-2.917-0.065-3.601,0.4
		c-0.183-0.084-0.357-0.167-0.524-0.25c-3.001,1.384-6.968,3.191-11.899,5.426c-1.898,1.397-3.007,2.256-3.326,2.574
		c-0.1,0.134-0.899,1.551-2.399,4.25c-0.076,0.143-0.151,0.276-0.226,0.4c-0.02,0.834-0.044,1.65-0.074,2.449
		c-0.031,0.633-0.064,1.258-0.1,1.875c-0.3,4.834-0.899,9.142-1.801,12.926c-0.522,2.193-1.131,4.186-1.824,5.975
		c-0.598,1.551-1.257,2.951-1.976,4.2c-3.106,5.384-7.374,8.075-12.8,8.075c-2.25,0-4.133-1.267-5.65-3.801
		c-0.803-1.332-1.502-3.016-2.1-5.049c-0.107-0.41-0.217-0.811-0.325-1.201c-0.704-2.686-1.245-4.686-1.625-6
		c-0.397-1.364-0.813-2.523-1.25-3.475c-0.417-0.869-0.851-1.561-1.3-2.074h-5.15c-0.151,0.031-0.301,0.064-0.449,0.1
		c-2.895,0.591-5.252,0.99-7.076,1.199c-0.074,0.049-0.148,0.098-0.225,0.15c-1.3,0.934-3.017,1.4-5.15,1.4
		c-2.5,0-4.566-0.617-6.199-1.85c-1.267-0.934-1.9-1.817-1.9-2.65v-0.025c-2.645-1.67-5.212-5.096-7.699-10.275
		c0-1.156,0.541-2.24,1.625-3.25c0.452-0.422,0.994-0.83,1.625-1.225c0.052-2.571,0.235-4.638,0.549-6.199
		c0.021-0.059,0.037-0.116,0.051-0.176c0.8-3.767,2.434-6.166,4.9-7.199c3.688-2.582,6.979-4.74,9.875-6.476
		c1.18-0.192,2.121-0.734,2.824-1.625c0.99-0.531,1.891-0.956,2.7-1.274c-0.409-0.603-0.885-1.261-1.425-1.976
		c0.182-1.022,0.224-2.09,0.125-3.2c0-1.732-1.15-2.883-3.45-3.449c-0.845-0.196-1.536-0.238-2.075-0.125
		c-0.314-0.391-0.613-0.757-0.9-1.101c-1.672-0.181-3.155-0.538-4.449-1.075c-1.295-0.778-2.336-1.445-3.125-2
		c-0.209-0.187-0.41-0.387-0.6-0.6c-0.452-0.506-0.827-1.014-1.125-1.525c-0.65-1.088-0.976-2.195-0.976-3.324
		c0-2.322,1.059-4.456,3.175-6.4c5.014-8.077,10.746-10.944,17.2-8.6c1.302-0.292,2.942-0.375,4.925-0.25
		c5.301,0.333,8.816,1.3,10.551,2.9c0.121,0.109,0.255,0.234,0.399,0.375c1.003,0.92,2.554,2.428,4.649,4.525
		c0.372,0.376,0.73,0.735,1.076,1.075c0.729,0.366,1.604,1.042,2.625,2.025c0.456,0.443,0.922,0.927,1.399,1.45
		c0.545,0.598,1.104,1.248,1.675,1.95c0.392,0.474,0.791,0.974,1.2,1.5c0.907,0.995,1.933,2.162,3.075,3.5
		c1.137,1.332,2.387,2.832,3.75,4.5c0.461,0.571,0.895,1.113,1.3,1.625c1.38,1.082,2.997,2.189,4.851,3.326
		c0.285,0.172,0.561,0.338,0.824,0.5c1.926,0.1,4.283,0.149,7.075,0.149c2.661,0,5.002-0.351,7.024-1.05
		c3.007-1.064,5.299-2.915,6.875-5.551c1.209-2.083,2.033-4.574,2.476-7.475c-0.155-0.158-0.306-0.333-0.45-0.525
		c-1.232-1.644-2.092-4.694-2.574-9.149c-0.101-0.867-0.351-3.85-0.75-8.95c-0.234-3.534-0.551-6.1-0.951-7.7
		c-1.6-6.833-3.933-11.45-7-13.85c-0.138-0.109-0.296-0.217-0.475-0.325c-1.885-1.161-6.109-2.486-12.675-3.975
		c-1.234-0.287-2.335-0.596-3.3-0.925c-1.672-0.577-2.946-1.218-3.825-1.925c-0.091,0-0.183,0-0.274,0c-1.768,0-2.9-1.333-3.4-4
		c-0.267-1.367-0.434-4.317-0.5-8.85c-0.018-2.143-0.109-3.977-0.275-5.5c-1.166-0.609-2.408-1.609-3.725-3
		c-2.033-2.167-3.051-3.483-3.051-3.95c0-0.086,0-0.169,0-0.25c-0.594,0.106-1.36,0.256-2.299,0.45c-2.067,0.4-3.317,0.6-3.75,0.6
		c-0.796,0-1.488-0.067-2.076-0.2c-1.132,0.211-2.439,0.445-3.924,0.7c-3.334,0.6-6.5,2.183-9.5,4.75
		c-0.141,0.121-0.274,0.237-0.4,0.35c-3.369,4.605-5.152,7.155-5.35,7.65c-1.201,3.5-2.25,6.4-3.15,8.7
		c-0.432,1.071-0.84,2.013-1.225,2.825c-1.396,4.35-2.256,7.092-2.576,8.225c-0.666,5.133-1.332,9.033-2,11.7
		c-0.797,3.059-2.163,5.4-4.1,7.025c-0.51,0.436-1.059,0.819-1.65,1.15c-0.27,0.818-0.586,1.552-0.949,2.2
		c-1.343,2.45-3.376,3.675-6.1,3.675c-2.357,0-4.499-0.342-6.426-1.025c-2.563-0.899-4.747-2.399-6.55-4.5
		c-0.989-1.145-1.864-2.47-2.625-3.975c-1.933-3.767-2.899-7.567-2.899-11.4c0-0.218,0.041-0.518,0.125-0.9
		c-0.35-0.244-0.642-0.561-0.875-0.95c-0.334-0.533-0.5-1.083-0.5-1.65c0-5.248,0.949-10.222,2.85-14.925
		c0.527-1.292,1.128-2.567,1.8-3.825c0.022-0.041,0.122-0.199,0.3-0.475c0.08-0.307,0.162-0.606,0.25-0.9
		c1.313-4.55,3.529-8.492,6.65-11.825c1.074-1.162,2.099-2.053,3.074-2.675c0.778-1.207,1.604-2.482,2.476-3.825
		c1.267-1.967,5.333-4.733,12.2-8.3c7.133-3.733,11.35-6.35,12.65-7.85c0.413-0.476,0.797-1.234,1.149-2.275
		c0.017-0.285,0.05-0.576,0.101-0.875c0-6.791,1.774-11.941,5.324-15.45c0.341-0.341,0.699-0.666,1.075-0.975
		C328.795,87.617,333.594,85.358,342.449,83.3z M331.225,294.65c1.737-0.005,3.555,0.111,5.45,0.35
		c0.677-0.014,1.436-0.006,2.274,0.025c1.473,0.043,3.206,0.168,5.201,0.375c0.229,0.023,0.463,0.049,0.699,0.074
		c4.629,0.501,9.021,1.184,13.176,2.051c1.072,0.231,2.131,0.473,3.174,0.725c2.934,1.633,4.951,3.783,6.051,6.449
		c0.553,1.352,1.336,3.395,2.35,6.125c0.078,0.24,0.161,0.482,0.25,0.726c0.733,1.267,1.7,3.399,2.9,6.399
		c1.057,1.971,2.465,3.695,4.225,5.176c0.691,0.58,1.434,1.122,2.225,1.625c3.959,2.471,9.018,4.354,15.176,5.65
		c0.32,0.068,0.646,0.135,0.975,0.199c2.934,0.566,4.717,0.967,5.35,1.2c0.543,0.172,0.977,0.372,1.301,0.601
		c-1.433,1.232-3.149,2.849-5.15,4.85c-0.699,0.767-2.633,2.75-5.8,5.949c-0.114,0.125-0.222,0.25-0.325,0.375
		c-0.418,0.123-0.859,0.281-1.324,0.476c-1.222,0.504-2.43,1.112-3.625,1.825c-1.255,0.255-2.947,1.297-5.076,3.125
		c-1.081,0.93-2.465,2.172-4.149,3.725c-0.769,0.561-1.585,1.152-2.45,1.775c-3.633,2.533-6.033,4.25-7.199,5.15
		c-2.834,2.172-7.917,5.581-15.25,10.225c-1.311,0.512-2.677,1.037-4.101,1.574c-7.796,2.932-13.354,4.891-16.675,5.875
		c-0.119,0.201-0.277,0.393-0.475,0.576c-0.734,0.6-1.917,0.899-3.551,0.899c-2.3,0-5.366-1.533-9.199-4.601
		c-0.902-0.72-1.736-1.428-2.5-2.125c-2.165-1.957-3.766-3.799-4.801-5.524c-0.23-0.425-0.529-1.158-0.9-2.2
		c-0.129-0.381-0.271-0.805-0.424-1.275c-0.206-0.645-0.432-1.369-0.676-2.174c-0.934-3.234-1.4-5.434-1.4-6.601
		c0-2.933,1.15-5.851,3.451-8.75c1.467-1.866,3.982-4.233,7.549-7.101c2.137-1.764,3.861-3.239,5.176-4.424
		c1.033-0.941,1.809-1.7,2.324-2.275c2.074-2.254,3.215-4.437,3.426-6.551c-0.217-0.122-0.425-0.271-0.625-0.449
		c-0.084-0.072-0.168-0.148-0.25-0.225c0-0.028,0-0.054,0-0.076c0-2.244-1.176-4.594-3.525-7.049
		c-0.304-0.572-0.529-0.955-0.675-1.15c-0.634-0.834-2.083-1.917-4.351-3.25c-1.705-0.966-2.589-1.966-2.649-3c0-0.03,0-0.063,0-0.1
		c0-0.839,0.092-1.514,0.274-2.025c-0.516-0.949-0.774-1.908-0.774-2.875c0-0.094,0-0.186,0-0.275
		c0.019-0.074,0.035-0.148,0.05-0.225c0.176-0.762,0.275-1.563,0.301-2.4c0.324-1.26,0.883-2.359,1.674-3.3
		c2.027-2.432,5.603-3.798,10.726-4.101C329.76,294.658,330.484,294.643,331.225,294.65z M152.525,300.199
		c2.266-0.233,4.266-0.458,6-0.674c0.621-0.047,1.212-0.089,1.775-0.125c8.173-0.521,14.065,0.354,17.675,2.625
		c2.329,1.476,3.704,3.533,4.125,6.174c0.739-0.161,1.306,0.105,1.7,0.801c0.333,0.6,0.5,1.367,0.5,2.3c0,0.8-2.25,5.717-6.75,14.75
		c-1.408,2.826-2.675,5.234-3.8,7.226c0.066,0.115,0.1,0.24,0.1,0.375c0,0.1-0.6,1.633-1.8,4.6c-0.5,1.243-0.908,2.293-1.225,3.15
		c0.465,3.358,1.724,7.191,3.775,11.5c0.413,0.867,0.83,1.718,1.25,2.549c0.113,0.228,0.229,0.453,0.35,0.676
		c0.794,1.586,1.594,3.094,2.4,4.525c0,0.379-0.184,0.92-0.55,1.625c-0.012,0.043-0.029,0.084-0.05,0.125
		c-0.467,0.933-0.934,1.399-1.4,1.399c-2.367,0-4.35-1.667-5.95-5c-0.024-0.069-0.049-0.136-0.075-0.2
		c-1.621-0.723-3.746-1.872-6.375-3.449c-4.933-3.033-8.566-5.75-10.9-8.15c-1.333-1.4-3.3-3.633-5.9-6.7
		c-2.567-3-4.6-5.267-6.1-6.8c-0.467-0.467-4.483-4.533-12.05-12.2c-7.367-7.8-11.05-12.783-11.05-14.95c0-0.113,0-0.222,0-0.324
		c-1.767-0.779-2.65-1.521-2.65-2.226c0-0.869,0.267-1.519,0.8-1.95c0.523-0.4,1.29-0.6,2.3-0.6c0.767,0,2.583,0.35,5.45,1.05
		c0.627,0.146,1.21,0.279,1.75,0.399c0.271,0.052,0.529,0.102,0.775,0.15c1.551,0.301,2.709,0.45,3.475,0.45
		c1.092,0,3.242-0.233,6.45-0.7c1.79-0.262,3.906-0.594,6.35-1C146.496,301.024,149.704,300.558,152.525,300.199z M114.975,238.449
		c0.15,1.824,0.225,3.808,0.225,5.951v5.25c0.034,1.566-0.167,2.732-0.6,3.5c-0.228,0.42-0.394,0.777-0.5,1.074
		c-0.1,0.275-0.15,0.501-0.15,0.676c0,0.6,0.217,2.433,0.65,5.5c0,1.533-0.284,2.533-0.85,3c-0.033,0-1.934,1-5.7,3
		c-0.433,0.232-1.633,1.366-3.6,3.399c-0.064,0.067-0.131,0.134-0.2,0.2c-0.083,0.625-0.234,1.292-0.45,2
		c-0.533,1.733-1.267,2.6-2.2,2.6c-1.833,0-2.767-0.75-2.8-2.25c0.029-0.128,0.054-0.253,0.075-0.375
		c-0.365-0.236-0.606-0.596-0.725-1.074c-3.929-2.449-7.045-11.033-9.35-25.75c-1.4-8.834-2.3-17.734-2.7-26.701l-0.65-19.599
		c0-3.934,0.05-6.333,0.15-7.2c0.066-0.7,0.65-4.017,1.75-9.95c0.322-1.936,0.989-4.652,2-8.15c0-1.6,0.4-3.917,1.2-6.95
		c0.9-3.467,1.45-6.25,1.65-8.35c0.2-2.167,0.633-4.65,1.3-7.45c0.4-1.633,1.05-4.133,1.95-7.5c1.534-6.033,3.25-11.117,5.15-15.25
		c0.667-1.433,1.417-2.85,2.25-4.25c0.767-1.333,1.333-2.417,1.7-3.25c0.367-0.833,0.7-2.217,1-4.15c0.567-1.4,1.983-1.833,4.25-1.3
		c0.451-0.88,1.126-1.655,2.025-2.325c-1.35-0.636-2.025-1.377-2.025-2.225c0-2.596,4.333-3.029,13-1.3
		c1.459,0.286,3.042,0.636,4.75,1.05c12.967,3.733,20.533,5.9,22.7,6.5c8.281,1.157,14.048,3.732,17.3,7.725
		c0.304,0.379,0.587,0.771,0.85,1.175c1.205,1.842,1.979,4.301,2.325,7.375c0.15,1.273,0.225,2.648,0.225,4.125
		c0,2.633-1.983,5.284-5.95,7.95c-1.508,1.011-3.482,2.127-5.925,3.35c0.25,0.35,0.375,0.8,0.375,1.35c0,0.5-3.1,2.417-9.3,5.75
		c-3.058,1.639-5.375,2.863-6.95,3.675c-0.856,0.442-1.49,0.759-1.9,0.95v0.075c-0.063,0.064-0.155,0.081-0.275,0.05
		c-0.151,0.066-0.242,0.1-0.275,0.1c-0.055,0-0.138-0.017-0.25-0.05c-0.146,0.132-0.296,0.265-0.45,0.4
		c-1.158,1.012-2.208,1.92-3.15,2.725c-0.589,1.313-1.123,3.021-1.6,5.125c-0.171,0.782-0.338,1.615-0.5,2.5
		c-0.142,0.755-0.275,1.456-0.4,2.1c-0.241,1.291-0.441,2.349-0.6,3.175c1.609,2.079,2.876,3.704,3.8,4.875
		c1.092,1.375,2.058,2.5,2.9,3.375c0.721,0.601,1.304,1.109,1.75,1.525c0.067,0.042,0.134,0.083,0.2,0.125
		c1.347,0.878,2.464,2.062,3.35,3.55c1.667,2.804,2.5,6.695,2.5,11.675c0,1.434-0.7,3.333-2.1,5.7
		c-0.394,0.678-0.811,1.286-1.25,1.824c-1.804,2.203-4.038,3.344-6.7,3.426c-0.099,0-0.199,0-0.3,0c-0.357,0-0.682-0.033-0.975-0.1
		c-2.205,1.609-6.055,3.967-11.55,7.074c-0.277,0.347-0.569,0.705-0.875,1.075c-1.6,1.997-3.534,4.38-5.8,7.149
		c-0.279,0.341-0.554,0.674-0.825,1c-1.084,1.322-2.084,2.547-3,3.676c-0.205,0.505-0.396,0.996-0.575,1.475
		c0.169,0.702,0.32,1.586,0.45,2.65C114.872,237.129,114.93,237.778,114.975,238.449z M314.1,349.35
		c0.007-0.023,0.016-0.049,0.025-0.074c-0.014,0.018-0.031,0.034-0.051,0.049L314.1,349.35z"/>
</g>
<g id="CountryStroke">
	<path fill-rule="evenodd" clip-rule="evenodd" d="M311.05,27.8c2.733-1.467,5.483-1.867,8.25-1.2l0.149,1
		c-1.299,0.8-2.6,1.617-3.899,2.45c-2.3,1.5-4.649,3.017-7.05,4.55c-7.033,4.433-12.816,10.066-17.35,16.9
		c-3,4.533-6.967,7.967-11.9,10.3c-5.3,2.5-10.917,3.717-16.85,3.65c-4.633-0.033-9.133-0.85-13.5-2.45
		c-5.933-2.2-11.133-5.6-15.6-10.2c-10.533,0.9-20.783,3.367-30.75,7.4c-5.833,2.3-11.55,4.867-17.15,7.7
		c-1.767,0.9-3.5,1.817-5.2,2.75c-3.767,2.167-7.7,3.133-11.8,2.9c-0.367-0.5-0.717-1.017-1.05-1.55
		c-0.333-0.467-0.417-0.934-0.25-1.4c0.9-2.5,1.383-4.983,1.45-7.45c-5.733-0.267-11.283,0.783-16.65,3.15
		c-2,0.9-3.833,1.733-5.5,2.5l0.05-1.3c0.133-0.167,0.284-0.283,0.45-0.35c3.7-2.433,7.717-4.217,12.05-5.35
		c3.233-0.933,6.534-1.367,9.9-1.3c1.033,0.033,1.65,0.4,1.85,1.1c0.833,3.033,0.65,6.05-0.55,9.05c3.6-1.6,7.217-3.217,10.85-4.85
		c5.233-2.333,10.483-4.633,15.75-6.9c5.633-2.367,11.316-4.533,17.05-6.5c5.733-1.933,11.567-2.8,17.5-2.6
		c1.7,0.167,3.267,0.783,4.7,1.85c1.7,1.333,3.433,2.667,5.2,4c5.3,3.967,11.267,6,17.9,6.1c3.5,0.2,6.917-0.1,10.25-0.9
		c5.9-1.534,11.066-4.4,15.5-8.6c4.634-4.3,8.95-8.85,12.95-13.65C301.533,34.1,305.949,30.5,311.05,27.8z M409.4,86.3
		c-1.167,0-2.317,0.017-3.451,0.05c-7.699-0.934-15.416-1.667-23.149-2.2c-2.933-0.4-5.884-0.617-8.851-0.65
		c-2.966-0.033-5.933-0.083-8.899-0.15c-5.967-0.1-11.917-0.083-17.851,0.05c-2.133,0.033-4.232,0.283-6.299,0.75
		c-1.533,0.4-3.018,0.933-4.451,1.6c-5.633,2.533-9.699,6.633-12.199,12.3c-1,2.267-1.667,4.583-2,6.95
		c-0.7,4.867-3.2,8.483-7.5,10.85c-1.967,1.066-4,1.983-6.1,2.75c-2.434,0.9-4.601,2.083-6.5,3.55
		c-4.268,3.4-8.167,7.25-11.701,11.55c-2.899,3.534-5.316,7.367-7.25,11.5c-2.633,5.667-3.949,11.583-3.949,17.75
		c0.033,6.3,1.883,12,5.55,17.1c3.601,4.934,8.417,7.633,14.45,8.1c1.4-0.133,2.483-0.717,3.25-1.75c2-2.533,3.583-5.35,4.75-8.45
		c2.867-7.767,5.383-15.633,7.55-23.6c1.067-3.867,2.366-7.633,3.899-11.3c1.4-3.4,3.4-6.367,6-8.9c2.168-2.1,4.734-3.6,7.701-4.5
		c6.166-1.9,12.133-1.667,17.899,0.7c1,0.367,1.899,0.917,2.7,1.65c3.633,3.433,4.967,7.633,4,12.6c-0.267,1.3-0.6,2.6-1,3.9
		c-0.367,1.333-0.033,2.333,1,3c4.333,2.8,9.15,4.55,14.449,5.25c4.634,0.6,8.384,2.7,11.25,6.3c1.168,1.5,2.15,3.133,2.951,4.9
		c1.699,3.667,2.866,7.467,3.5,11.4c0.566,3.466,1.066,6.933,1.5,10.4c0.633,4.867,0.416,9.667-0.65,14.4
		c-1.5,6.533-5.45,10.866-11.85,13c-6.867,2.166-12.801,0.683-17.801-4.451c-2.166-2.199-4.1-4.566-5.8-7.1
		c-2.733-4.166-6.017-7.783-9.851-10.85c-4.899-3.967-10.549-6.133-16.949-6.5c-6.367-0.633-12.066,1.017-17.1,4.95
		c-3.867,3-5.967,6.9-6.301,11.701c4.467,1.699,8.85,3.666,13.15,5.899c0.699,0.333,1.35,0.75,1.949,1.25
		c0.768,0.601,1.467,1.3,2.101,2.101c0.434,0.533,0.783,1.133,1.05,1.799c0.867,2.067,0.6,3.867-0.8,5.4
		c-2.233,2.434-4.866,4.384-7.899,5.85c-8.234,4.067-12.567,10.684-13,19.851c-0.201,4.267,1.232,7.733,4.299,10.399
		c1.234,1.067,2.617,1.834,4.15,2.301c3.434,1.133,6.85,1.1,10.25-0.1c1.334-0.467,2.65-0.951,3.95-1.451
		c4.667-1.666,8.851-0.883,12.55,2.351c1.367,1.134,2.268,2.649,2.7,4.55c0.366,1.733,0.7,3.518,1,5.35
		c0.533,3.034,1.583,5.951,3.149,8.75c2.634-0.6,5.168-1.582,7.601-2.949c0.5-0.233,0.967-0.5,1.399-0.801
		c0.9-0.633,1.75-1.299,2.551-2c0.633-0.533,1.199-1.133,1.699-1.799c1.4-1.934,2.201-4.033,2.4-6.301c0.2-2.333,0.334-4.666,0.4-7
		c0.066-2.3,0.35-4.566,0.85-6.8c1.367-6.267,4.467-11.517,9.301-15.75c3.467-3.066,7.549-4.583,12.25-4.55
		c2.766,0.033,5.283,0.783,7.549,2.25c1.101,0.699,1.884,1.633,2.351,2.8c0.7,1.601,1.417,3.184,2.149,4.75
		c1,2.067,2.134,4.05,3.4,5.95c5.066,7.733,11.417,14.083,19.051,19.05c1.333,0.866,2.75,1.467,4.25,1.8
		c2.433-0.033,4.883-0.033,7.35,0c5.3,0.066,9.9-1.583,13.8-4.949l1.149,0.449c0.367,1.367-0.149,2.467-1.549,3.301
		c-0.434,0.232-0.867,0.482-1.301,0.75c-0.8,0.566-1.633,1.083-2.5,1.549c-0.9,0.434-1.816,0.784-2.75,1.051
		c-4.666,1.467-9.416,1.633-14.25,0.5c-5.633-1.434-10.583-4.184-14.85-8.25c-4.2-4.066-7.717-8.7-10.551-13.9
		c-1.799-3.267-3.75-6.449-5.85-9.55c-1.033-1.566-2.1-3.116-3.199-4.649c-3.268-0.467-6.451-0.234-9.551,0.699
		c-0.6,0.2-1.199,0.417-1.8,0.65c-1.167,0.6-2.3,1.25-3.399,1.949c-0.867,0.567-1.617,1.234-2.25,2
		c-2.234,2.634-3.734,5.668-4.5,9.101c-1.101,4.866-2.018,9.75-2.75,14.649c-0.867,5.867-3.101,11.101-6.701,15.701
		c-0.633,0.799-1.383,1.482-2.25,2.049c-3.399,2.134-7.1,2.801-11.1,2c-1.5-0.332-2.732-1.033-3.699-2.1
		c-1.734-1.866-2.551-4.133-2.451-6.8c0.067-1.333-0.049-2.649-0.35-3.95c-0.699-3.199-2.017-6.184-3.949-8.949
		c-4.701,0.566-9.351,1.467-13.951,2.699c-0.299,0.134-0.6,0.217-0.899,0.25c-1.733-0.199-3.45-0.482-5.149-0.85
		c-1.201-0.233-2.351-0.584-3.451-1.051c-2.666-1.332-4.933-3.166-6.799-5.5c-1.9-2.299-2.851-4.982-2.851-8.049
		c-0.033-3.567,0.5-7.018,1.601-10.351c1.566-4.767,4.433-8.533,8.6-11.3c3.1-2.033,6.3-3.667,9.6-4.9
		c1.268-0.467,2.117-1.416,2.551-2.85c0.533-1.633,0.133-2.967-1.201-4c-3.866-3.2-8.166-5.4-12.899-6.6
		c-1.233-0.367-2.25-1.018-3.05-1.951c-0.467-0.533-0.9-1.049-1.301-1.549c0.034-3.533,1.101-6.784,3.201-9.75
		c0.399-0.567,0.833-1.1,1.299-1.6c0.934-1,1.934-1.95,3-2.85c1.067-0.833,2.217-1.55,3.451-2.15c4.766-2.5,9.899-3.6,15.399-3.3
		c5.767,0.267,11.033,2.017,15.8,5.25c3.9,2.633,7.25,5.867,10.051,9.7c2.5,3.333,5.033,6.466,7.6,9.4
		c1.166,1.367,2.566,2.45,4.199,3.25c1.934,1,3.967,1.6,6.101,1.801c3.8,0.199,7.217-0.817,10.25-3.051
		c2.8-2.066,4.533-4.85,5.2-8.35c0.566-2.934,0.65-5.9,0.25-8.9c-0.967-7.534-2.4-15.083-4.301-22.65
		c-0.732-2.933-2.332-5.283-4.799-7.05c-2.634-1.967-5.5-3.467-8.601-4.5c-3.634-1.233-7.233-2.383-10.8-3.45
		c-2.434-0.633-4.434-1.8-6-3.5c-0.733-0.767-1.017-1.667-0.85-2.7c0.433-2.9,0.85-5.717,1.25-8.45
		c0.6-3.867-0.634-6.816-3.701-8.85c-1.266-0.867-2.683-1.466-4.25-1.8c-3.732-0.933-7.433-0.867-11.1,0.2
		c-4.366,1.2-7.767,3.8-10.199,7.8c-2.667,4.433-4.783,9.067-6.351,13.9c-2.8,8.567-5.917,17.067-9.351,25.5
		c-1.332,3.267-3.232,6.2-5.699,8.8c-1.533,1.667-3.383,2.517-5.551,2.55c-3.832,0.067-7.266-1.067-10.299-3.4
		c-2.867-2.233-5.033-5.017-6.5-8.35c-3.5-8-4.417-16.267-2.75-24.8c1.1-5.6,3.232-10.8,6.399-15.6
		c4.167-6.434,8.967-12.267,14.399-17.5c2.367-2.267,5.084-3.917,8.15-4.95c4.2-1.4,7.934-3.433,11.2-6.1
		c0.366-0.333,0.634-0.716,0.8-1.15c1.4-3.7,1.967-7.583,1.7-11.65c-0.066-1.1,0.134-2.183,0.601-3.25
		c1.933-4.467,5.149-7.65,9.649-9.55c3.634-1.467,7.366-2.633,11.2-3.5c1.867-0.367,3.75-0.717,5.65-1.05
		c14.833-0.467,29.717-0.333,44.649,0.4c6.3,0.1,12.149,1.667,17.55,4.7l0.2,0.6L409.4,86.3z M401.05,332.15
		c-2.733,0.633-5.483,0.949-8.25,0.949c-8.2-0.033-14.566-3.416-19.101-10.15c-3-4.433-5.6-9.116-7.799-14.049
		c-1.601-3.567-3.75-6.684-6.451-9.351c-1.666-1.601-3.582-2.55-5.75-2.851c-9.299-0.266-18.633-0.266-28,0
		c-0.466,0.367-0.949,0.734-1.449,1.101c-0.767,0.634-1.584,1.2-2.45,1.7c-2.233,1.4-3.5,3.333-3.8,5.8
		c-0.5,3.833,1.066,6.467,4.699,7.899c3.734,1.567,6.234,4.184,7.5,7.851c0.168,0.467,0.284,0.95,0.351,1.45
		c0.366,2.767-0.183,5.3-1.649,7.6c-1.234,1.9-2.684,3.617-4.351,5.15c-3.933,3.699-7.7,7.533-11.3,11.5c-1.334,1.434-2.334,3.1-3,5
		c-0.434,1.3-0.566,2.6-0.4,3.9c0.768,6.299,3.134,12,7.1,17.1c1.234,1.6,2.768,2.767,4.601,3.5c1.7,0.6,3.267,0.867,4.7,0.8
		l0.1,1.351l-1.55,1.299c-1.366,0-2.7-0.149-4-0.449c-3.101-0.566-5.616-2.25-7.55-5.051c-2.334-3.399-4.301-6.933-5.9-10.6
		c-2.967-6.666-2.15-12.8,2.45-18.4c4.134-4.966,8.634-9.6,13.5-13.899c2.601-2.333,3.75-5.25,3.45-8.75
		c-0.133-1.566-0.783-2.816-1.95-3.75c-1.767-1.399-3.649-2.533-5.649-3.399c-0.834-0.334-1.551-0.801-2.15-1.4
		c-2.6-2.5-3.533-5.566-2.801-9.2c0.268-1.267,0.684-2.45,1.25-3.55c1.5-3,3.817-5.283,6.951-6.85c1.133-0.533,2.283-0.867,3.449-1
		c7.301-0.467,14.617-0.701,21.95-0.701c3.601,0.5,7.116,1.234,10.55,2.201c2.367,0.666,4.518,1.766,6.45,3.299
		c2.467,1.967,3.684,4.551,3.649,7.75c-0.033,2,0.5,3.801,1.601,5.4c2.5,3.768,5.366,7.15,8.601,10.15
		c1.833,1.666,3.866,3.199,6.1,4.6c5.333,3.4,11.033,4.117,17.1,2.15l1.95-1.551c1.366,1.301,1.317,2.684-0.149,4.15
		c-0.167,0.134-0.334,0.268-0.5,0.4C402.483,331.617,401.783,331.916,401.05,332.15z M179.5,304.35c-2.833-2.767-6.333-4-10.5-3.699
		c-1.367,0.066-2.717,0.133-4.05,0.199c-9.2,1.1-18.383,2.566-27.55,4.4c-0.6,0.1-1.2,0.217-1.8,0.35
		c-5.4,0.634-10.767,0.301-16.1-1c-3.233-0.833-6.05-2.4-8.45-4.699c-1.6-1.567-1.6-3.067,0-4.5c2.1,3.033,4.934,5.033,8.5,6
		c4.633,1.133,9.333,1.366,14.1,0.699c9.867-1.566,19.65-3.15,29.35-4.75c4.566-0.699,9.05-0.5,13.45,0.6
		c1.967,0.567,3.65,1.567,5.05,3c2.5,2.467,3.767,5.451,3.8,8.951c0.033,3.533-0.983,6.649-3.05,9.35
		c-4.067,5.333-6.7,11.233-7.9,17.699c-0.567,2.934-0.434,5.75,0.4,8.451c1.833,6.066,4.217,11.933,7.15,17.6l-0.1,0.8
		c-0.333,0.267-0.683,0.483-1.05,0.649c-0.934,0.367-1.783,0.168-2.55-0.6c-2.667-2.8-4.4-6.267-5.2-10.4
		c-0.333-1.633-0.7-3.25-1.1-4.85c-1.7-6.666-1.333-13.217,1.1-19.65c1.566-4.066,3.633-7.866,6.2-11.399
		c1.9-2.566,2.733-5.399,2.5-8.5C181.566,307.184,180.833,305.617,179.5,304.35z M139.75,115.45c-5.967-1.066-12-2.183-18.1-3.35
		c-1.333-0.367-2.65-0.717-3.95-1.05c-1.733-0.367-3.267-1.15-4.6-2.35c-0.633-0.566-0.733-1.15-0.3-1.75
		c0.6-0.1,1.217-0.15,1.85-0.15c3.667,0.067,7.317,0.467,10.95,1.2c7.966,1.533,15.85,3.283,23.65,5.25
		c7.767,1.867,14.683,5.483,20.75,10.85c0.9,0.833,1.65,1.833,2.25,3c3.066,6.1,2.2,11.716-2.6,16.85
		c-2.333,2.534-4.983,4.7-7.95,6.5c-4.733,2.867-9.45,5.7-14.15,8.5c-3.8,2.3-6.8,5.3-9,9c-1.667,2.833-1.95,5.75-0.85,8.75
		c0.833,2.267,2.15,4.133,3.95,5.6c2.133,1.767,4.083,3.717,5.85,5.85c3.367,4,4.767,8.617,4.2,13.85c-0.6,5.333-3.35,9.1-8.25,11.3
		c-5,2.333-10,4.684-15,7.05c-2,0.967-3.8,2.301-5.4,4c-5.1,5.268-7.333,11.566-6.7,18.9c0.4,4.9,0.816,9.8,1.25,14.699
		c0.233,2.701-0.6,5.067-2.5,7.101c-0.967,1-1.9,1.983-2.8,2.95c-2.167,2.367-4.367,4.633-6.6,6.8
		c-0.867,0.866-1.767,1.733-2.7,2.601l-1.7-0.701c-0.367-1.433-0.35-2.832,0.05-4.199c0.3-1.1,0.9-2.033,1.8-2.801
		c1.033-0.866,2.167-1.716,3.4-2.549c2.2-1.601,3.967-3.617,5.3-6.051c0.5-0.9,0.8-1.85,0.9-2.85c0.533-4.967,0.517-9.967-0.05-15
		c-0.333-2.934-0.167-5.783,0.5-8.551c1.067-4.232,3.1-7.933,6.1-11.1c4.267-4.434,9.283-7.9,15.05-10.4
		c3.833-1.732,7.316-3.933,10.45-6.6c1.633-1.4,2.583-3.166,2.85-5.3c0.5-3.833-0.517-7.267-3.05-10.3
		c-1.733-2.133-3.684-4.117-5.85-5.95c-5.3-4.5-6.95-10.017-4.95-16.55c0.5-1.667,1.35-3.167,2.55-4.5
		c4.3-4.967,9.466-8.883,15.5-11.75c5.667-2.767,10.8-6.3,15.4-10.6c2.7-2.5,3.717-5.617,3.05-9.35c-0.2-1.167-0.6-2.233-1.2-3.2
		c-2.733-4.267-6.467-7.233-11.2-8.9C152,118.167,145.95,116.583,139.75,115.45z"/>
</g>
<g id="CloudStroke">
	<path fill-rule="evenodd" clip-rule="evenodd" fill="#DBFFFF" d="M377.574,57.55c-0.313-0.31-0.629-0.626-0.949-0.95
		c-0.176-0.168-0.352-0.335-0.525-0.5c-0.101-0.103-0.201-0.203-0.3-0.3c-0.597-0.581-1.213-1.173-1.851-1.775
		c-0.708-0.662-1.441-1.337-2.199-2.025c-1.896-1.719-3.796-3.377-5.7-4.975c-1.005-0.862-2.014-1.703-3.024-2.525
		c-0.383-0.31-0.766-0.618-1.15-0.925c-5.639-4.52-11.281-8.529-16.926-12.025l0.351-0.25c9.356,5.644,18.032,11.902,26.024,18.775
		c0.832,0.719,1.656,1.444,2.476,2.175c1.601,1.428,3.084,2.812,4.45,4.15c0.619,0.609,1.211,1.209,1.775,1.8
		c0.854,0.881,1.654,1.739,2.399,2.575c0.747,0.848,1.438,1.673,2.075,2.475c0.162,0.199,0.32,0.399,0.475,0.6
		c0.014-0.079,0.03-0.154,0.051-0.225c0.656-2.053,5.215,1.088,13.674,9.425c0.592,0.58,1.175,1.154,1.75,1.725
		c7.617,7.593,13.316,14.135,17.101,19.625c2.2,2.467,4.217,5.55,6.05,9.25c0.953,1.906,1.986,4.289,3.1,7.15
		c0.244,0.643,0.494,1.31,0.75,2c0.516,1.375,1.725,3.608,3.625,6.7c0.69,1.108,1.465,2.325,2.326,3.65
		c1.376,2.118,2.443,3.785,3.199,5c0.9,1.47,1.35,2.286,1.35,2.45c0,0.42-0.058,0.787-0.174,1.1
		c0.329,0.124,0.654,0.298,0.975,0.525c0.639,0.44,1.256,1.082,1.85,1.925c0.9,1.233,1.35,2.183,1.35,2.85
		c0,0.566-0.033,0.967-0.1,1.2c-0.025,0.05-0.108,0.226-0.25,0.525c-0.043,0.094-0.092,0.202-0.15,0.325
		c-0.072,0.04-0.148,0.082-0.225,0.125c-0.367,0.167-0.76,0.292-1.175,0.375l-0.05,0.1c-0.033-0.033-0.051-0.317-0.051-0.85
		c0-0.619-0.091-1.186-0.274-1.7c-0.534-1.563-1.909-2.596-4.125-3.1c-0.123-0.021-0.531-0.063-1.226-0.125
		c-0.545-0.036-1.262-0.086-2.149-0.15c-1.669-0.121-3.961-0.279-6.875-0.475c-4.899-0.367-8.767-1.317-11.601-2.85
		c-2.533-1.372-4.583-3.322-6.149-5.85c-0.331-0.534-0.64-1.093-0.925-1.675c-0.484-0.98-0.908-2.03-1.275-3.15
		c-0.014-0.058-0.031-0.116-0.05-0.175c-0.601-1.9-1.517-4.167-2.75-6.8c-0.085-0.185-0.168-0.368-0.25-0.55
		c-0.31-0.685-0.585-1.318-0.825-1.9c-0.55-1.294-0.941-2.344-1.175-3.15c-0.022-0.087-0.048-0.171-0.075-0.25
		c-0.886-3.439-1.377-5.272-1.475-5.5c-0.305-0.716-0.68-1.399-1.125-2.05c-0.75-1.107-1.701-2.116-2.85-3.025
		c-0.463-0.355-0.954-0.697-1.476-1.025l-4.851,0.1c-0.37,0.24-0.754,0.54-1.149,0.9c-0.17,0.149-0.345,0.308-0.524,0.475
		c-0.682,0.667-1.407,1.492-2.176,2.475c-1.9,2.4-3.232,3.983-4,4.75c-3.833,3.767-9.184,5.65-16.05,5.65
		c-1.772,0-3.481-0.075-5.125-0.225c-1.323-0.124-2.606-0.299-3.851-0.525c-2.058-0.369-4-0.877-5.824-1.525
		c-1.021-0.367-2.004-0.775-2.95-1.225c-3.566-1.667-5.351-2.883-5.351-3.65c0-0.5,0.018-0.783,0.051-0.85v-0.025
		c0.018-0.044,0.085-0.152,0.199-0.325h7.601c1.033,0.167,2.134,0.434,3.3,0.8c0.9,0.3,1.551,0.45,1.95,0.45
		c4.399,0,7.2-0.917,8.399-2.75c0.601-0.933,0.768-1.917,0.5-2.95c0-1.267-1-2.75-3-4.45c-2-1.667-3-3.5-3-5.5
		c0-1,0.034-1.833,0.101-2.5c3.8,0.467,9.917-0.567,18.351-3.1c0.738-0.222,1.447-0.438,2.125-0.65c2.912-0.934,5.22-1.8,6.924-2.6
		c2.4-1.128,3.601-2.128,3.601-3c0-1.875-0.726-4.075-2.175-6.6c-0.158-0.271-0.324-0.545-0.5-0.825
		c-1.414-2.252-3.381-4.752-5.9-7.5c-0.548-0.603-1.123-1.22-1.725-1.85C378.031,58.034,377.807,57.792,377.574,57.55z M336.05,47.8
		c-4.467,1.8-7.851,4.434-10.149,7.9c-1.167,1.867-2.101,3.267-2.801,4.2c-1.199,1.667-2.583,3.083-4.15,4.25
		c-5.466,3.8-9.533,6.667-12.199,8.6c-4.801,3.467-7.867,6.233-9.2,8.3c-2.933,4.6-7.2,8.533-12.8,11.8
		c-3.566,2.1-8.65,4.367-15.25,6.8c-6.6,2.4-10.883,4.183-12.85,5.35c-3.567,2.133-5.35,4.667-5.35,7.6
		c0,0.767,0.25,1.783,0.75,3.05s0.75,1.933,0.75,2c0,2.8-0.667,5.8-2,9c-2.033,4.833-5,7.25-8.9,7.25c-5.467,0-8.383-1.033-8.75-3.1
		c-0.2-1.133,0.133-2.683,1-4.65c-0.267,0-0.467-0.25-0.6-0.75c-3.233,1.533-5.7,3.783-7.4,6.75c-1.833,3.167-4.417,5.667-7.75,7.5
		c-4.633,2.6-9.767,5.217-15.4,7.85c-7,3.267-11.367,4.9-13.1,4.9l-4.35-0.1l-0.2,0.2c-0.133,0.033-0.2-0.217-0.2-0.75
		c0-0.833,0.083-1.117,0.25-0.85l4.5-0.25c0.6-0.6,2.75-2.133,6.45-4.6c3.633-2.433,5.783-4.017,6.45-4.75
		c0.767-0.833,1.667-2.367,2.7-4.6c0.867-1.933,1.967-3.4,3.3-4.4c3.8-2.867,9.8-6.2,18-10c6.567-3.033,9.85-4.933,9.85-5.7
		c0-0.167-1-1.383-3-3.65c-2-2.233-3-4.2-3-5.9c0-3.333,1.15-5.833,3.45-7.5c2.333-1.7,8.733-4.7,19.2-9
		c7.9-2.233,14.8-4.217,20.7-5.95c11.4-3.3,17.75-5.95,19.05-7.95c0.8-1.2,3.167-3.383,7.101-6.55c3.566-3.367,5.366-6.6,5.399-9.7
		c-0.366-0.967,0.2-2.217,1.7-3.75c1.533-1.567,3.666-3.05,6.4-4.45c6.899-3.6,14.333-5.2,22.299-4.8L336.05,47.8z M434.449,277.199
		c-0.899,0.534-1.916,0.817-3.049,0.851c-1.101-0.066-1.817-0.101-2.15-0.101c-2.52,0-4.703,1.051-6.551,3.15
		c-0.396,0.447-0.78,0.947-1.149,1.5c-0.8,1.167-2.417,4.584-4.851,10.25c-2.033,4.667-4.116,8.066-6.25,10.2
		c-3.1,3.101-7.066,4.649-11.899,4.649c-6.399,0-10.601-0.933-12.601-2.799c-0.832-0.801-1.25-2.084-1.25-3.851
		c0-0.433,0.668-1.933,2-4.5c1.334-2.566,2-3.933,2-4.101c0-1.133-0.799-2.5-2.399-4.1c-0.566-0.533-2.351-2.05-5.351-4.55
		c-5.166-4.267-7.75-7.95-7.75-11.05c0-4.233,1.284-7.4,3.851-9.5c2.2-1.834,5-2.667,8.399-2.5c3.201,0.166,6,1.117,8.4,2.85
		c2.566,1.834,3.85,4.018,3.85,6.551c0,2.666-0.166,4.583-0.5,5.75c-0.732,2.366-2.316,4.299-4.75,5.799
		c-0.121-0.04-0.213-0.073-0.274-0.1c1.171,1.656,2.546,3.023,4.125,4.1c3.267-0.199,5.817-1.116,7.649-2.75
		c0.834-0.766,2.117-2.5,3.851-5.199c1.467-2.334,3.05-4.017,4.75-5.051c2.533-1.5,6.033-2.25,10.5-2.25c4.233,0,7.351,1,9.351,3
		c0.51,0.512,0.951,1.137,1.324,1.875C434.006,275.883,434.248,276.508,434.449,277.199z M218.3,313.8
		c4.167,0.254,7.35,1.004,9.55,2.25c0.124,0.073,0.249,0.147,0.375,0.226c1.921,1.254,3.446,3.246,4.575,5.975
		c0.199,0.508,0.441,1.125,0.725,1.85c0.652,1.683,1.527,3.949,2.625,6.801c1.37,2.74,3.22,5.223,5.55,7.449
		c0.833,0.798,1.734,1.564,2.7,2.301h0.025c4.486-0.738,7.294-1.938,8.425-3.601c0.6-2,1.267-3.517,2-4.55
		c1.599-2.299,6.849-4.008,15.75-5.125c4.319-0.538,9.501-0.938,15.55-1.2c2.266-0.092,4.648-0.167,7.149-0.226
		c1.767-0.033,3.733-0.332,5.899-0.899c3.4-0.899,7.801-1.767,13.201-2.601c6.433-0.966,10.666-2.266,12.699-3.899
		c1.233-0.967,1.85-2.433,1.85-4.399c0-3.434-1.399-6.551-4.199-9.351c-1.533-1.533-4.617-3.783-9.25-6.75
		c-4.367-2.833-7.45-5.25-9.25-7.25c-2.801-3.101-4.2-6.649-4.2-10.649c0-1.033,0.083-2.717,0.25-5.051c0.2-3,0.45-5.383,0.75-7.15
		c0.601-3.766,1.634-5.35,3.101-4.75c1.433,0.567,2.149,2.65,2.149,6.25c-0.226,1.02-0.351,2.035-0.375,3.051
		c0.475,1.187,0.782,2.736,0.925,4.65c0.268,1.199,1.316,3.399,3.15,6.6c0.123,0.212,0.24,0.42,0.35,0.625
		c2.168,2.727,5.086,5.311,8.75,7.75c0.903,0.599,1.854,1.19,2.85,1.775c1.977,1.139,4.242,2.322,6.801,3.549
		c4.174,2.002,9.125,4.118,14.85,6.351c14.301,5.533,21.733,8.417,22.301,8.649c7.833,3.367,13.633,6.668,17.399,9.9
		c4.667,4.066,7,8.6,7,13.6c0,0.893-0.024,1.727-0.075,2.5c0.15,0.273,0.225,0.69,0.225,1.25c0,0.419-0.116,0.869-0.35,1.351
		c-0.055,0.13-0.121,0.264-0.199,0.399c-0.436,2.559-1.253,4.141-2.451,4.75c-0.1,0.134-0.199,0.201-0.299,0.201
		c-0.234,0.033-0.351-0.217-0.351-0.75c0-0.246,0.033-0.529,0.101-0.851c-1.955,1.689-4.722,3.606-8.301,5.75
		c-2,1.167-4.732,2.783-8.199,4.851c-2.467,1.533-3.701,2.616-3.701,3.25c0,1-20.433,10.833-61.299,29.5
		c-0.701,0-1.567-0.117-2.601-0.351c-1.134-0.233-1.933-0.517-2.399-0.851c0.566-0.766,2.399-1.582,5.5-2.449
		c3.967-1.033,6.149-1.65,6.549-1.85c1.698-0.75,3.631-1.683,5.801-2.801c-0.52,0.129-1.053,0.262-1.6,0.4
		c-9.033,2.3-16.084,3.449-21.15,3.449c-13.434,0.168-20.434,0.334-21,0.5h-23c-1.233-0.133-3.05,0.084-5.45,0.65
		c-1.006,0.23-2.623-0.336-4.85-1.699c-0.375,0.166-0.858,0.25-1.45,0.25c-1.9,0-5.417-0.617-10.55-1.851
		c-5.533-1.366-8.65-2.083-9.35-2.149c-2.333-0.301-6.034-0.75-11.1-1.351c-3.833-0.833-5.55-2.366-5.15-4.601
		c-1.594,0.073-2.844-0.043-3.75-0.35c-0.558-0.184-0.982-0.441-1.275-0.775c-0.281,0.183-0.564,0.324-0.85,0.426
		c-0.356,0.133-0.715,0.199-1.075,0.199c-0.833,0-1.283-0.082-1.35-0.25c0-0.033-0.033-0.1-0.1-0.199
		c-0.098-0.131-0.148-0.439-0.15-0.926v-0.024c0-0.2,1.1-1.283,3.3-3.25c0.68-0.618,1.254-1.226,1.725-1.825
		c0.202-0.27,0.386-0.536,0.55-0.8c0.683-1.083,1.025-2.141,1.025-3.175c0-7.133-3.1-11.584-9.3-13.35
		c-1.534-0.434-3.667-0.917-6.4-1.451c-1.933-0.566-2.9-1.5-2.9-2.799c0-1.301,1.2-2.801,3.6-4.5c2.567-1.801,5.067-2.701,7.5-2.701
		c0.433,0,2.067,0.217,4.9,0.65c2.833,0.4,4.45,0.6,4.85,0.6c2.933,0,4.683-0.516,5.25-1.549v-1.951c0-1.933-4.017-4.433-12.05-7.5
		c-4-1.5-8.017-2.966-12.05-4.399c0-0.13,0.025-0.263,0.075-0.399c0.131-0.381,0.448-0.789,0.95-1.226
		c1.436-1.21,4.345-2.636,8.725-4.274c7.033-2.634,13.733-3.951,20.1-3.951c0.435,0,0.86,0.009,1.275,0.025
		C216.911,313.738,217.619,313.764,218.3,313.8z M92.15,246.25c0.008,0.129,0.017,0.254,0.025,0.375
		c-0.001,0.026-0.001,0.051,0,0.074c0.061,0.702,0.153,1.394,0.275,2.076c0.006,0.032,0.015,0.065,0.025,0.1
		c0.532,2.848,1.615,5.598,3.25,8.25c0.381,0.602,0.79,1.202,1.225,1.8L97,258.9c0.088,0.149,0.18,0.3,0.275,0.449
		c0.101,0.133,0.201,0.267,0.3,0.4c0.761,0.971,1.603,1.93,2.525,2.875c1.042,1.074,2.184,2.133,3.425,3.175
		c1.847,1.528,3.914,3.021,6.2,4.476c0.29,0.062,0.581,0.119,0.875,0.174l0.15,0.451c3.457,2.113,7.723,4.33,12.8,6.649
		c3.466,1.614,5.949,2.79,7.45,3.524c0.831,0.409,1.364,0.684,1.6,0.826c4.533,2.899,8.083,6.1,10.65,9.6
		c1.839,2.492,3.256,5.259,4.25,8.3c0.124,0.382,0.24,0.766,0.35,1.149c0.743,2.613,2.652,5.096,5.725,7.451
		c0.279,0.213,0.57,0.42,0.875,0.625c1.871,1.337,4.121,2.629,6.75,3.875c3.867,1.666,6.55,2.85,8.05,3.549
		c2.566,1.134,4.066,2.051,4.5,2.75c-0.567,0.234-1,0.384-1.3,0.451c-0.081,0.007-0.198,0.031-0.35,0.074
		c-0.367,0.106-0.934,0.314-1.7,0.625c-0.048,0.013-0.098,0.029-0.15,0.051c-0.371,0.141-0.787,0.309-1.25,0.5l-12.4-0.201
		c-5.6-2.366-10.3-5.216-14.1-8.549c-1.281-1.113-2.99-2.863-5.125-5.25c-0.816-0.91-1.691-1.91-2.625-3
		c-0.833-1-2.033-2.518-3.6-4.551c-1.5-1.666-3.217-2.9-5.15-3.699c-0.7-0.301-4.283-1.301-10.75-3
		c-2.328-0.632-4.078-1.291-5.25-1.976c-0.113-0.065-0.222-0.132-0.325-0.2c-5.113-1.751-9.238-6.959-12.375-15.625
		c-1.89-5.228-3.198-10.77-3.925-16.625c-0.045-0.339-0.086-0.681-0.125-1.025c1.038,0.734,1.921,1.709,2.65,2.926V260.1
		c0.116-0.3,0.324-0.584,0.625-0.85c0.034-0.023,0.067-0.049,0.1-0.075c-0.354-0.487-0.687-0.954-1-1.399
		c-1.738-2.464-2.947-4.372-3.625-5.726c-0.434-0.858-0.65-1.491-0.65-1.899c0-0.201,0.025-0.609,0.075-1.226
		c0.046-0.55,0.112-1.274,0.2-2.175v-0.051c0.019-0.125,0.036-0.258,0.05-0.399c0.021-0.271,0.045-0.554,0.075-0.851h0.35
		C92.108,245.713,92.125,245.98,92.15,246.25z M329,374.25c0.633-0.267,0.934-0.45,0.9-0.551l-1.9,0.726
		c0.121,0.028,0.238,0.062,0.35,0.101C328.539,374.45,328.756,374.358,329,374.25z M139.15,74.625
		c-0.134,0.063-0.268,0.121-0.4,0.175l-0.15-0.55c0.34-0.188,0.782-0.404,1.325-0.65c0.957-0.417,2.223-0.917,3.8-1.5
		c1.468-1.373,2.91-1.89,4.325-1.55c0.479-0.163,0.97-0.33,1.475-0.5c1.517-0.512,3.175-1.062,4.975-1.65l12.75,0.15
		c2.066,0.567,3.4,1.267,4,2.1c0.333,0.467,0.5,1.283,0.5,2.45c0,1-0.667,2.633-2,4.9c-1.333,2.267-2,3.7-2,4.3
		c1.066,0.267,5.233,0.35,12.5,0.25c4.5,2.867,7.566,6.05,9.2,9.55c0.947,1.972,1.521,4.372,1.725,7.2
		c0.05,0.75,0.075,1.533,0.075,2.35c0,1.5-0.517,2.75-1.55,3.75c-0.167,0.171-0.351,0.329-0.55,0.475
		c-0.877,0.709-2.019,1.243-3.425,1.6c-1.455,0.383-3.196,0.575-5.225,0.575c-2.967,0-5.25-0.75-6.85-2.25
		c-0.719-0.672-1.427-1.681-2.125-3.025c-0.313-0.597-0.621-1.255-0.925-1.975c-0.065-0.156-0.131-0.306-0.2-0.45
		c-0.948-2.252-1.781-3.769-2.5-4.55c-0.877-0.963-1.994-1.613-3.35-1.95c-0.76-0.2-1.593-0.3-2.5-0.3
		c-0.75,0-1.492,0.075-2.225,0.225c-2.149,0.404-4.241,1.413-6.275,3.025c-0.576,0.451-1.101,0.86-1.575,1.225
		c-2.207,1.723-3.366,2.598-3.475,2.625H144c-0.483-0.264-1.242-1.331-2.275-3.2c-0.535-0.969-1.144-2.153-1.825-3.55
		c-1.767-3.667-3.483-5.5-5.15-5.5c-1.478,0-2.811,0.125-4,0.375c-1.396,0.273-2.595,0.715-3.6,1.325c-1,0.6-2.217,1.417-3.65,2.45
		c-0.03-0.003-0.063-0.003-0.1,0c-0.518-0.074-0.935-0.174-1.25-0.3c-0.167-0.067-0.467-0.217-0.9-0.45c1.667-1.1,3.367-2.1,5.1-3
		c1.445-0.744,2.778-1.327,4-1.75c-0.07,0-0.137,0-0.2,0c-0.833,0-1.2-0.083-1.1-0.25c-0.066-0.133-0.183-0.217-0.35-0.25
		c-0.1-0.1-0.15-0.4-0.15-0.9c0-1.133,1.45-2.65,4.35-4.55c3.133-1.8,4.933-2.867,5.4-3.2c0.193-0.128,0.901-0.862,2.125-2.2
		c0.605-0.658,1.33-1.458,2.175-2.4C141.373,73.758,140.223,74.2,139.15,74.625z M108.6,185.65c0-1.9,0.4-3.067,1.2-3.5
		c0.867-0.5,4.767-1.7,11.7-3.6c0-0.167,1.833-0.25,5.5-0.25c0.833,0.867,1.033,2.583,0.6,5.15c-0.4,2.5-0.067,4.2,1,5.1l12.9,0.25
		c2.1,0.9,3.433,1.833,4,2.8c0.333,0.6,0.5,1.667,0.5,3.2c0,1.934-1.217,3.383-3.65,4.35c-1.267,0.5-3.967,1.15-8.1,1.95
		c-3.767,0.7-6.467,1.467-8.1,2.301c-2.433,1.299-3.65,3.166-3.65,5.6c0,0.566,0.75,1.833,2.25,3.8s2.25,3.95,2.25,5.95
		c0,1.699-0.417,2.699-1.25,3c-1.467,0.6-5.633,0.9-12.5,0.9c-6.467,0-10.967-3.717-13.5-11.15c-1.333-3.801-2-7.917-2-12.35
		c0-2.333,0.233-3.867,0.7-4.6c1.633-2.566,5.4-3.533,11.3-2.9c0.233-0.167,0.4-0.333,0.5-0.5c0.233-0.233,0.35-0.617,0.35-1.15
		c0-0.367-0.333-1.067-1-2.1C108.933,186.9,108.6,186.15,108.6,185.65z M203.85,231.8c0.867,0.7,1.833,1.733,2.9,3.101
		c0.933,1.232,1.7,2.033,2.3,2.399c3.934,0.101,7.167-0.351,9.7-1.351c1.933-0.766,2.9-1.466,2.9-2.1c0-1-0.783-2.616-2.35-4.85
		c-1.6-2.267-2.4-4.084-2.4-5.45c0-4.366,5.633-5.25,16.9-2.649c4.267,1,8.133,2.25,11.6,3.75c3.5,1.533,5.25,2.766,5.25,3.699
		c0,2.4-3.183,4.483-9.55,6.25c-3.333,0.9-5.517,1.584-6.55,2.051c-2,0.899-3,1.967-3,3.199c0,0.4,0.167,0.95,0.5,1.65
		c0.333,0.666,0.5,1.217,0.5,1.65c0,2.666-1.133,5.6-3.4,8.799c-3.233,4.634-7.817,6.951-13.75,6.951
		c-6.233,0-9.933-0.351-11.1-1.051c-1.566-0.967-2.95-4.1-4.15-9.4c-0.5-2.332-2.65-4.516-6.45-6.549c-3.633-2-7.1-3-10.4-3
		c-4.6,0-10.15,1.133-16.65,3.399c-3.233,1.134-6.25,2.267-9.05,3.399c-0.833,0-1.15-0.1-0.95-0.299
		c3.967-3.067,8.133-6.033,12.5-8.9c8.733-5.733,14.817-8.6,18.25-8.6C195.1,227.9,200.583,229.199,203.85,231.8z"/>
	<path fill-rule="evenodd" clip-rule="evenodd" fill="#E2FFFF" fill-opacity="0.298" d="M371.324,50.075
		c0.755,0.505,1.529,1.047,2.326,1.625c8.1,5.9,13.033,9.35,14.799,10.35c4.034,2.434,7.567,5.917,10.601,10.45
		c0.351,0.52,0.817,1.278,1.399,2.275c-0.575-0.571-1.158-1.146-1.75-1.725c-8.459-8.336-13.018-11.478-13.674-9.425
		c-0.145-0.102-0.285-0.202-0.426-0.3c0.125,0.172,0.25,0.347,0.375,0.525c-0.154-0.201-0.313-0.401-0.475-0.6
		c-0.637-0.802-1.328-1.627-2.075-2.475c-0.745-0.836-1.546-1.694-2.399-2.575c-0.564-0.59-1.156-1.19-1.775-1.8
		c-1.366-1.338-2.85-2.722-4.45-4.15C372.98,51.519,372.156,50.794,371.324,50.075z M426.699,110.8
		c1.568,2.317,3.002,5.133,4.301,8.45c0.029,0.085,0.054,0.168,0.074,0.25c-1.9-3.092-3.109-5.325-3.625-6.7
		C427.193,112.109,426.943,111.443,426.699,110.8z M438.75,132.225c-0.32-0.227-0.646-0.402-0.975-0.525
		c0.116-0.313,0.174-0.679,0.174-1.1c0-0.164-0.449-0.98-1.35-2.45c0.061,0,0.127,0,0.2,0
		C437.101,128.15,437.75,129.508,438.75,132.225z"/>
	<path fill-rule="evenodd" clip-rule="evenodd" fill="#DBFFFF" fill-opacity="0.698" d="M375.8,55.8
		c0.099,0.097,0.199,0.197,0.3,0.3c0.174,0.165,0.35,0.332,0.525,0.5c0.32,0.324,0.637,0.64,0.949,0.95
		c0.129,0.207,0.254,0.423,0.375,0.65c0.068,0.132,0.135,0.266,0.201,0.4c0.023-0.122,0.058-0.23,0.1-0.325
		c0.602,0.63,1.177,1.247,1.725,1.85c2.52,2.748,4.486,5.248,5.9,7.5c0.176,0.279,0.342,0.554,0.5,0.825
		c1.449,2.525,2.175,4.725,2.175,6.6c0,0.872-1.2,1.872-3.601,3c-1.704,0.8-4.012,1.667-6.924,2.6
		c-0.678,0.211-1.387,0.428-2.125,0.65c-8.434,2.533-14.551,3.567-18.351,3.1c-0.066,0.667-0.101,1.5-0.101,2.5c0,2,1,3.833,3,5.5
		c2,1.7,3,3.183,3,4.45c0.268,1.033,0.101,2.017-0.5,2.95c-1.199,1.833-4,2.75-8.399,2.75c-0.399,0-1.05-0.15-1.95-0.45
		c-1.166-0.367-2.267-0.633-3.3-0.8h-7.601c-0.114,0.173-0.182,0.281-0.199,0.325v0.025c-0.033,0.067-0.051,0.35-0.051,0.85
		c0,0.767,1.784,1.983,5.351,3.65c0.946,0.45,1.929,0.858,2.95,1.225c1.824,0.648,3.767,1.156,5.824,1.525
		c1.244,0.226,2.527,0.401,3.851,0.525c1.644,0.15,3.353,0.225,5.125,0.225c6.866,0,12.217-1.883,16.05-5.65
		c0.768-0.767,2.1-2.35,4-4.75c0.769-0.983,1.494-1.808,2.176-2.475c0.18-0.167,0.354-0.326,0.524-0.475
		c0.396-0.36,0.779-0.66,1.149-0.9l4.851-0.1c0.521,0.328,1.013,0.669,1.476,1.025c1.148,0.91,2.1,1.918,2.85,3.025
		c0.445,0.65,0.82,1.333,1.125,2.05c0.098,0.228,0.589,2.061,1.475,5.5c0.027,0.079,0.053,0.163,0.075,0.25
		c0.233,0.806,0.625,1.856,1.175,3.15c0.24,0.582,0.516,1.215,0.825,1.9c0.082,0.182,0.165,0.366,0.25,0.55
		c1.233,2.633,2.149,4.9,2.75,6.8c0.019,0.06,0.036,0.118,0.05,0.175c0.367,1.12,0.791,2.169,1.275,3.15
		c0.285,0.582,0.594,1.141,0.925,1.675c1.566,2.528,3.616,4.478,6.149,5.85c2.834,1.533,6.701,2.483,11.601,2.85
		c2.914,0.196,5.206,0.354,6.875,0.475c0.888,0.064,1.604,0.114,2.149,0.15c0.694,0.063,1.103,0.104,1.226,0.125
		c2.216,0.504,3.591,1.537,4.125,3.1c0.184,0.514,0.274,1.081,0.274,1.7c0,0.533,0.018,0.817,0.051,0.85l0.05-0.1
		c0.415-0.083,0.808-0.208,1.175-0.375c0.076-0.043,0.152-0.085,0.225-0.125c0.059-0.123,0.107-0.231,0.15-0.325
		c0.103,0.118,0.202,0.243,0.301,0.375c1.199,1.6,1.799,3.283,1.799,5.05c0,0.633-0.199,1.267-0.6,1.9c-0.467,0.667-0.982,1-1.55,1
		c-0.038,0-0.079,0-0.125,0c0.964,2.057,2.306,3.224,4.024,3.5c-0.6,0.667-0.966,1.05-1.1,1.15c-0.366,0.233-0.883,0.35-1.55,0.35
		c-1.033,0-2.05-1.15-3.05-3.45c-1.033-2.3-2.517-3.45-4.45-3.45c-2.101,0-3.333,0.967-3.7,2.9c0,2.033-0.017,3.15-0.05,3.35v20.25
		c-0.2,1.633-0.384,3.95-0.55,6.95c-0.133,2.367-0.2,4.05-0.2,5.05c0,0.633,0.101,1.7,0.3,3.2c0.233,1.533,0.467,2.85,0.7,3.95v6.35
		c0.333,0.267,0.083,0.4-0.75,0.4c-2.8,0-4.95-2.6-6.45-7.8c-0.767-2.767-1.616-6.25-2.55-10.45v-23.65
		c-0.366-0.9-0.983-2.917-1.851-6.05c-0.933-2.633-2.066-3.95-3.399-3.95c-1.667,0-3.866,0.367-6.601,1.1
		c-2.766,0.7-4.566,1.05-5.399,1.05c-2.866,0-5.167-2.6-6.899-7.8c-0.934-2.833-2-6.867-3.201-12.1c-1.933,0.1-3.35,0.233-4.25,0.4
		c0,2.667,0.201,4.867,0.601,6.6c0.067,0.1,0.083,0.183,0.05,0.25c-0.033,0.167-0.3,0.25-0.8,0.25c-2.433,0-4.884-0.7-7.351-2.1
		c-2.266-1.3-3.399-2.433-3.399-3.4c0-1.433,1.5-3.233,4.5-5.4c3-2.167,4.5-3.7,4.5-4.6c-1.233-2.9-2.683-4.35-4.351-4.35
		c-6.933,0-12.082,0.983-15.449,2.95c-2.2,1.933-3.816,2.9-4.85,2.9c-4.834,0-7.484-0.117-7.951-0.35l-13-0.25
		c-4.066-1.533-6.399-2.45-7-2.75c-1.832-0.9-2.75-1.883-2.75-2.95c0-0.4,0.168-1.267,0.5-2.6c0.334-1.333,0.5-2.217,0.5-2.65
		c0-1.1-0.266-2.034-0.799-2.8c-0.768-1.1-2-1.65-3.701-1.65c-1.633,0-3.1,0.233-4.399,0.7c-1.3,0.466-2.267,0.7-2.899,0.7
		c-0.834,0-1.817-0.033-2.951-0.1c-1.399-0.1-2.149-0.2-2.25-0.3c-3.433-0.667-6.033-1.317-7.799-1.95
		c-1.533-0.566-2.65-1.2-3.351-1.9c1.866-0.933,5.167-1.85,9.899-2.75c2.367-0.467,4.851-0.933,7.451-1.4
		c0.6-0.233,1.866-1.25,3.799-3.05c1.567-1.467,3.301-2.2,5.201-2.2c4.433,0,7.016,0.217,7.75,0.65c0.732,0.4,1.149,0.6,1.25,0.6
		l4.5-0.1c0.766-1.566,1-4.333,0.699-8.3c-0.3-3.8,0.066-6.533,1.1-8.2c1.201-1.933,2.701-3.217,4.5-3.85
		c2.967-1.066,9.201-2.083,18.701-3.05c2.399-0.233,4.183-1.217,5.35-2.95c0.8-1.233,1.199-2.6,1.199-4.1
		c0-1.534-0.25-2.917-0.75-4.15c-0.364-0.906-0.84-1.623-1.424-2.15c-2.224,0.044-4.849,0.528-7.875,1.45
		c-3.667,1.1-7.117,1.65-10.351,1.65c-11.433-0.833-17.566-1.25-18.399-1.25c-4.334,0-9.033,2.433-14.101,7.3
		c-4.267,4.934-6.433,7.467-6.5,7.6c-1,2.233-3.417,5-7.25,8.3c-4.467,3.667-7.601,6.35-9.399,8.05c-1.367,1.3-3.467,4-6.301,8.1
		c-2.6,3.7-5.166,6.583-7.699,8.65c-0.601,0.5-2.684,1.117-6.25,1.85c-3.801,0.767-5.801,1.2-6,1.3
		c-1.834,0.934-2.851,1.45-3.05,1.55c-1.034,0.6-1.85,1.283-2.45,2.05c-0.567,0.767-1.417,2.217-2.55,4.35
		c-1.2,2.167-1.8,3.417-1.8,3.75c0,0.867,0.533,1.583,1.6,2.15c1.433,0.767,3.6,1.15,6.5,1.15c3.9,0,6.6-0.417,8.1-1.25
		c1.1-1,2.233-1.667,3.4-2c0.699,0.567,1.133,1.567,1.299,3c0.067,0.533,0.101,1.684,0.101,3.45c0,1.367-1.467,2.917-4.399,4.65
		c-3,1.767-5.834,2.65-8.5,2.65c-2.3,0-4.267-0.883-5.9-2.65c-0.867-0.933-1.65-2.017-2.35-3.25c-3.6,0.6-6.533,1.65-8.8,3.15
		c-2.034,1.333-3.05,2.667-3.05,4c0,0.967,2.333,3.4,7,7.3c4.667,3.867,7,6.7,7,8.5c0,4.167-3.933,7.466-11.8,9.9
		c-5.3,1.633-15.867,3.65-31.7,6.05h-0.1c-0.1-0.033-0.15-0.3-0.15-0.8c0-0.867,2.167-2.684,6.5-5.45
		c4.333-2.767,6.5-4.917,6.5-6.45c0-1.467-0.566-2.717-1.7-3.75c-1.733-1.567-4.55-2.25-8.45-2.05c-0.4-0.3-0.65-0.6-0.75-0.9
		c-0.067-0.233-0.1-0.7-0.1-1.4c0-1.367,0.133-2.367,0.4-3c0.333-0.833,1.2-2.033,2.6-3.6v-0.35c-1.933,1.133-3.5,3.333-4.7,6.6
		c-1.267,3.367-2.867,5.667-4.8,6.9c-3.533,2.267-8.15,4.567-13.85,6.9c-7.833,3.233-14.267,4.85-19.3,4.85
		c-7.033,0-12.25-1.867-15.65-5.6c-1.233-1.4-2.55-3.4-3.95-6c-0.767-1.466-2.017-3.85-3.75-7.15c0.067-0.167,0.133-0.283,0.2-0.35
		c0.066-0.1,0.367-0.15,0.9-0.15c0.233,0,2.067,1.283,5.5,3.85l4.15-0.1c0.167-0.167,0.567-1.183,1.2-3.05
		c0.7-1.967,1.05-3.2,1.05-3.7c0-0.533-0.167-1-0.5-1.4c-0.867-1.1-1.533-2.017-2-2.75v-1.1c-0.267-0.167,0.017-0.25,0.85-0.25
		c0.367,0,1.533,0.65,3.5,1.95c1.567,1.033,2.567,1.717,3,2.05h0.4c-1.4-1.8-3.566-4.417-6.5-7.85
		c-2.333-2.933-3.75-5.316-4.25-7.15v-6.75c0.067-0.167,0.517-0.25,1.35-0.25c0.5,0,1.2,0.45,2.1,1.35
		c1.233,1.3,2.25,2.317,3.05,3.05c3.2,2.9,6.733,4.35,10.6,4.35c4.1,0,7.983-1.5,11.65-4.5c1.867-1.533,3.483-3.167,4.85-4.9
		c1.867-1.167,3.733-2.817,5.6-4.95c2.367-1.7,6.917-2.917,13.65-3.65c-0.533-0.8-1.967-1.633-4.3-2.5
		c-2.967-1.1-5.067-2.066-6.3-2.9c-2-1.3-3.133-2.317-3.4-3.05c0-0.034,0-1.133,0-3.3c2.967-10.333,7.217-15.5,12.75-15.5
		c1.133,0,3.217,0.8,6.25,2.4c3.033,1.567,5.2,2.35,6.5,2.35c2.467,0,4.067-1.117,4.8-3.35c0.367-1.133,0.483-2.267,0.35-3.4
		c0-2.833-0.383-4.883-1.15-6.15c-1.433-2.367-4.383-3.867-8.85-4.5l-0.15-0.55c1.167-0.967,2-1.45,2.5-1.45
		c7.433,0,12.533,1.817,15.3,5.45c0.733,1,1.467,2.417,2.2,4.25c0.667,1.633,1.217,2.65,1.65,3.05h6.75
		c5.167-2.567,11.4-6.483,18.7-11.75c4-2.867,9.517-6.867,16.55-12c2.467-1.667,4.833-3.8,7.101-6.4
		c2.899-3.333,4.699-5.317,5.399-5.95c4.767-4.267,13.184-7.1,25.25-8.5c10.033,3.267,16.45,6.184,19.25,8.75
		c1.8,1.633,4.817,3.3,9.05,5c4.5,1.823,9.217,3.123,14.15,3.9c0.725,0.113,1.449,0.213,2.175,0.3
		C375.552,55.769,375.677,55.785,375.8,55.8z M394.3,104.55c-0.056-0.068-0.114-0.135-0.175-0.2c0.043,0.333,0.102,0.733,0.175,1.2
		c0.024-0.079,0.042-0.162,0.05-0.25c-0.033-0.208-0.05-0.375-0.05-0.5C394.3,104.719,394.3,104.636,394.3,104.55z M336.05,47.8
		l-0.101-0.4c-7.966-0.4-15.399,1.2-22.299,4.8c-2.734,1.4-4.867,2.883-6.4,4.45c-1.5,1.533-2.066,2.783-1.7,3.75
		c-0.033,3.1-1.833,6.333-5.399,9.7c-3.934,3.167-6.301,5.35-7.101,6.55c-1.3,2-7.649,4.65-19.05,7.95
		c-5.9,1.733-12.8,3.716-20.7,5.95c-10.467,4.3-16.867,7.3-19.2,9c-2.3,1.667-3.45,4.167-3.45,7.5c0,1.7,1,3.667,3,5.9
		c2,2.267,3,3.483,3,3.65c0,0.767-3.283,2.667-9.85,5.7c-8.2,3.8-14.2,7.133-18,10c-1.333,1-2.433,2.467-3.3,4.4
		c-1.033,2.233-1.934,3.767-2.7,4.6c-0.667,0.733-2.816,2.317-6.45,4.75c-3.7,2.467-5.85,4-6.45,4.6l-4.5,0.25
		c-0.167-0.267-0.25,0.017-0.25,0.85c0,0.533,0.067,0.783,0.2,0.75l0.2-0.2l4.35,0.1c1.733,0,6.1-1.633,13.1-4.9
		c5.633-2.633,10.767-5.25,15.4-7.85c3.333-1.833,5.917-4.333,7.75-7.5c1.7-2.967,4.167-5.217,7.4-6.75
		c0.133,0.5,0.333,0.75,0.6,0.75c-0.867,1.967-1.2,3.517-1,4.65c0.367,2.067,3.283,3.1,8.75,3.1c3.9,0,6.867-2.417,8.9-7.25
		c1.333-3.2,2-6.2,2-9c0-0.067-0.25-0.733-0.75-2s-0.75-2.283-0.75-3.05c0-2.934,1.783-5.467,5.35-7.6
		c1.967-1.167,6.25-2.95,12.85-5.35c6.6-2.433,11.684-4.7,15.25-6.8c5.6-3.267,9.867-7.2,12.8-11.8c1.333-2.066,4.399-4.833,9.2-8.3
		c2.666-1.934,6.733-4.8,12.199-8.6c1.567-1.167,2.951-2.583,4.15-4.25c0.7-0.933,1.634-2.333,2.801-4.2
		C328.199,52.233,331.583,49.6,336.05,47.8z M92.15,246.25c1.48-0.2,2.563-0.301,3.25-0.301c6.367,0,11.267,1.384,14.7,4.15
		c1.1,0.9,2.733,2.518,4.9,4.85c2.5,2.768,4.6,4.934,6.3,6.5c2.067,1.9,5.533,4.784,10.4,8.65c4.733,3.7,7.8,6.217,9.2,7.551
		c1.333,1.232,4.733,3.883,10.2,7.949c3.9,2.9,6.466,5.434,7.7,7.6c0.333,2.967,1.434,5.617,3.3,7.951
		c3.633,4.533,10.233,6.799,19.8,6.799c2.033,0,3.783-0.683,5.25-2.049c1.1-1.033,1.65-1.783,1.65-2.25
		c0-1.867-1.683-4.317-5.05-7.351c-3.4-3.066-5.1-4.649-5.1-4.75c0-0.967,0.2-1.583,0.6-1.851c0.533-0.332,1.75-0.5,3.65-0.5
		c4.533,0,7.767,1.5,9.7,4.5c1.233,1.934,1.9,2.951,2,3.051c0.833,0.934,1.933,1.4,3.3,1.4c2.933-0.667,5.867-1.334,8.8-2
		c5.9-1.334,10.883-2,14.95-2c6.233,0,10.8,2.133,13.7,6.399c0.566,0.833,1.333,2.283,2.3,4.351c0.6,1.333,1.133,2,1.6,2
		c2.3,0,4.683-0.4,7.15-1.201c3.633-1.199,5.8-1.883,6.5-2.049h4.5c1.4,0.866,2.85,2.266,4.35,4.199
		c1.8,1.667,4.683,2.783,8.65,3.35c1-0.699,2.967-3.5,5.9-8.399c2.899-4.8,4.351-7.601,4.351-8.399c0-0.467-0.5-1.817-1.5-4.051
		c-1-2.232-1.5-3.883-1.5-4.949c0-5,0.467-8.768,1.399-11.301c1.601-4.434,4.884-7.982,9.851-10.65
		c4.467-2.366,7.549-4.149,9.25-5.35c2.066-1.434,3.699-3,4.899-4.699c2.101-2.768,3.483-4.667,4.149-5.701
		c1-1.566,1.5-3.133,1.5-4.699c0-1.667-0.966-3.283-2.899-4.85c-4.167-3.334-6.5-5.25-7-5.75c0.101-0.101,0.167-0.367,0.2-0.801
		c0.166-0.366,0.633-0.55,1.4-0.55c3.066,0,7.066,1.634,12,4.899c4.366,2.9,7.633,5.717,9.799,8.451
		c1.834,2.299,3.101,4.566,3.801,6.799c0.633,1.867,0.949,4.018,0.949,6.451c0,1.166-0.666,3.383-2,6.649c-1.332,3.3-2,6.2-2,8.7
		c0,1.934,0.117,3.199,0.351,3.8c0.601,1.634,2.05,2.767,4.351,3.399h9.5c0.6-0.666,1.35-1.35,2.25-2.049
		c1.533-1.134,2.833-1.701,3.899-1.701c1.899,0,3.616,1.934,5.149,5.801c1.867,4.699,3.367,7.517,4.5,8.449
		c3.534,0.101,6.168,0.25,7.9,0.451c0.834,0.1,1.566,0.183,2.2,0.25c0.667,0,1.067-0.984,1.2-2.951l-0.051-2.949
		c0-4.533-1.5-8.467-4.5-11.801c-1.6-1.799-2.633-3.082-3.1-3.85c-0.934-1.6-1.4-3.467-1.4-5.6c0-1,0.367-2.551,1.101-4.65
		c1.033-2.866,2.467-5.5,4.3-7.9c5.5-7.166,13.4-10.75,23.7-10.75c2.667,0,4.717,0.418,6.149,1.25c1.134,0.668,4.634,0.75,10.5,0.25
		c1.301-0.5,2.184-1.516,2.65-3.049c0.233-0.867,0.35-2.201,0.35-4c0-1.533-0.466-3.134-1.399-4.801
		c-1.2-2.066-2.783-3.217-4.75-3.449l-0.101-0.551l0.101-0.8c10.434,1.467,15.649,5.75,15.649,12.851c0,2.266-0.6,3.933-1.799,5
		c-1.234,1.066-1.851,2.316-1.851,3.75c0,0.633,0.366,1.133,1.101,1.5c0.666,0.333,1.383,0.5,2.149,0.5
		c0.667,0,1.866-2.451,3.601-7.351c1.699-4.933,3.583-7.399,5.649-7.399c1.533,0,2.899-0.018,4.101-0.051
		c0.732,0.066,2.25,0.551,4.549,1.45l0.25,0.75c-2.366,2.366-3.766,4.101-4.199,5.2c-0.2,0.5-0.301,1.967-0.301,4.4
		c0,1.433,0.15,2.366,0.451,2.799c0.833,1.301,2.883,1.967,6.149,2c1.033,0.9,1.634,1.567,1.8,2c0.066,0.168,0.1,0.834,0.1,2
		c0,1.301-0.666,2.701-2,4.201c-1.332,1.5-2,2.283-2,2.35c0,0.967,1.168,1.767,3.5,2.4c1.141,0.332,2.333,0.54,3.576,0.625
		c0.044-0.012,0.086-0.02,0.125-0.025c1.053-0.195,1.928-0.195,2.625,0c0.787-0.053,1.595-0.153,2.424-0.301
		c0,0.101,0.051,0.201,0.15,0.301c0.066,0.133,0.1,0.434,0.1,0.9c0,0.495-0.274,0.87-0.824,1.125
		c0.083,0.373,0.125,0.799,0.125,1.274c0,0.267-1.367,3.134-4.1,8.601c-3.167,6.399-6.334,12.482-9.5,18.25
		c-9.667,17.5-16,26.25-19,26.25c-0.4,0-0.65-0.15-0.75-0.451c-0.067-0.332-0.317-0.5-0.75-0.5
		c-2.033,2.168-4.268,4.518-6.701,7.051c-3.447,3.59-6.173,6.332-8.174,8.225c0.816,2.313,1.225,4.038,1.225,5.176
		c0,0.833-0.033,1.266-0.1,1.299l-0.25,0.25c-0.167,0.168-0.5,0.25-1,0.25c-1.424,0-2.691-0.466-3.801-1.399
		c0.233-0.481,0.35-0.932,0.35-1.351c0-0.56-0.074-0.977-0.225-1.25c0.051-0.773,0.075-1.607,0.075-2.5c0-5-2.333-9.533-7-13.6
		c-3.767-3.232-9.566-6.533-17.399-9.9c-0.567-0.232-8-3.116-22.301-8.649c-5.725-2.232-10.676-4.349-14.85-6.351
		c-2.559-1.227-4.824-2.41-6.801-3.549c-0.996-0.585-1.946-1.177-2.85-1.775c-3.664-2.439-6.582-5.023-8.75-7.75
		c-0.109-0.205-0.227-0.413-0.35-0.625c-1.834-3.2-2.883-5.4-3.15-6.6c-0.143-1.914-0.45-3.464-0.925-4.65
		c0.024-1.016,0.149-2.031,0.375-3.051c0-3.6-0.717-5.683-2.149-6.25c-1.467-0.6-2.5,0.984-3.101,4.75
		c-0.3,1.768-0.55,4.15-0.75,7.15c-0.167,2.334-0.25,4.018-0.25,5.051c0,4,1.399,7.549,4.2,10.649c1.8,2,4.883,4.417,9.25,7.25
		c4.633,2.967,7.717,5.217,9.25,6.75c2.8,2.8,4.199,5.917,4.199,9.351c0,1.967-0.616,3.433-1.85,4.399
		c-2.033,1.634-6.267,2.934-12.699,3.899c-5.4,0.834-9.801,1.701-13.201,2.601c-2.166,0.567-4.133,0.866-5.899,0.899
		c-2.501,0.059-4.884,0.134-7.149,0.226c-6.049,0.262-11.231,0.662-15.55,1.2c-8.901,1.117-14.151,2.826-15.75,5.125
		c-0.733,1.033-1.4,2.55-2,4.55c-1.131,1.663-3.939,2.862-8.425,3.601H244.4c-0.966-0.736-1.867-1.503-2.7-2.301
		c-2.33-2.227-4.18-4.709-5.55-7.449c-1.098-2.852-1.973-5.118-2.625-6.801c-0.284-0.725-0.526-1.342-0.725-1.85
		c-1.129-2.729-2.654-4.721-4.575-5.975c-0.126-0.078-0.251-0.152-0.375-0.226c-2.201-1.246-5.384-1.996-9.55-2.25
		c0.057-0.089,0.116-0.181,0.175-0.274c-0.77,0.057-1.537,0.123-2.3,0.199c-0.415-0.017-0.84-0.025-1.275-0.025
		c-6.367,0-13.067,1.317-20.1,3.951c-4.38,1.639-7.289,3.064-8.725,4.274c-0.501,0.437-0.818,0.845-0.95,1.226
		c-0.05,0.137-0.075,0.27-0.075,0.399c4.033,1.434,8.05,2.899,12.05,4.399c8.033,3.067,12.05,5.567,12.05,7.5v1.951
		c-0.567,1.033-2.317,1.549-5.25,1.549c-0.4,0-2.017-0.199-4.85-0.6c-2.833-0.434-4.467-0.65-4.9-0.65c-2.433,0-4.933,0.9-7.5,2.701
		c-2.4,1.699-3.6,3.199-3.6,4.5c0,1.299,0.967,2.232,2.9,2.799c2.733,0.534,4.867,1.018,6.4,1.451c6.2,1.766,9.3,6.217,9.3,13.35
		c0,1.034-0.342,2.092-1.025,3.175c-0.165,0.264-0.348,0.53-0.55,0.8c-0.47,0.6-1.045,1.207-1.725,1.825
		c-2.2,1.967-3.3,3.05-3.3,3.25v0.024c-1.692-0.836-3.792-2.012-6.3-3.524c-2.454-1.461-5.27-3.22-8.45-5.274
		c0.71,1.876,2.026,3.434,3.95,4.674c-0.033,0.168-0.033,0.351,0,0.551c-0.033,0.133-0.317,0.199-0.85,0.199
		c-3.567,0-5.767-2.316-6.6-6.949c-0.133-0.801-0.2-3.834-0.2-9.1c0-1.101-0.75-2.584-2.25-4.451c-1.3-1.6-3.684-2.25-7.15-1.949
		c-3.8,0.333-6.283,0.066-7.45-0.801c-1.167-0.832-3.133-2.25-5.9-4.25c-2.233-1.699-3.483-3.033-3.75-4c0-0.433,0.3-0.766,0.9-1
		c1.066,0.967,2.017,1.768,2.85,2.4c1.566,1.233,3.7,1.85,6.4,1.85c0.533,0,1.167-0.049,1.9-0.149l0.95-0.149
		c-1-0.4-1.583-0.734-1.75-1c-0.067-0.067-0.1-0.4-0.1-1c0-1.234,1.05-2.101,3.15-2.601c0.933-0.2,3.217-0.467,6.85-0.8
		c6.667-0.566,10-2.233,10-5c0-0.667-0.033-1.117-0.1-1.35c-0.067-0.301-0.25-0.617-0.55-0.951c-0.6,0.367-2.167,1.334-4.7,2.9
		c-3.133,1.4-7.017,2.1-11.65,2.1c-5.733,0-12.05-2.149-18.95-6.449c-3.667-2.267-7.85-5.283-12.55-9.051
		c-2.133-0.1-4.05,0.184-5.75,0.851c-0.867,0.333-1.617,0.7-2.25,1.101l-0.25-0.75c0.679-0.484,1.362-0.893,2.05-1.226
		c-2.528-1.055-5.878-5.296-10.05-12.726c-2.434-4.299-4.6-8.6-6.5-12.899c0-0.042,0-0.083,0-0.125
		c1.172,0.685,2.922,1.344,5.25,1.976c6.467,1.699,10.05,2.699,10.75,3c1.933,0.799,3.65,2.033,5.15,3.699
		c1.567,2.033,2.767,3.551,3.6,4.551c0.934,1.09,1.809,2.09,2.625,3c2.135,2.387,3.844,4.137,5.125,5.25
		c3.8,3.333,8.5,6.183,14.1,8.549L169,320.9c0.463-0.191,0.879-0.359,1.25-0.5c0.052-0.021,0.102-0.038,0.15-0.051
		c0.043-0.004,0.085-0.004,0.125,0c0.86-0.151,1.468-0.301,1.825-0.449c-0.077-0.052-0.16-0.109-0.25-0.176
		c0.152-0.043,0.269-0.067,0.35-0.074c0.3-0.067,0.733-0.217,1.3-0.451c-0.434-0.699-1.934-1.616-4.5-2.75
		c-1.5-0.699-4.184-1.883-8.05-3.549c-2.629-1.246-4.879-2.538-6.75-3.875c-0.305-0.205-0.596-0.412-0.875-0.625
		c-3.073-2.355-4.981-4.838-5.725-7.451c-0.11-0.384-0.227-0.768-0.35-1.149c-0.994-3.041-2.411-5.808-4.25-8.3
		c-2.567-3.5-6.117-6.7-10.65-9.6c-0.236-0.143-0.77-0.417-1.6-0.826c-1.501-0.734-3.984-1.91-7.45-3.524
		c-5.077-2.319-9.343-4.536-12.8-6.649l-0.15-0.451c-0.294-0.055-0.585-0.112-0.875-0.174c-2.286-1.455-4.353-2.947-6.2-4.476
		c-0.34-0.323-0.699-0.655-1.075-1c-0.868-0.798-1.651-1.523-2.35-2.175c-0.923-0.945-1.765-1.904-2.525-2.875
		c-0.099-0.134-0.199-0.268-0.3-0.4c-0.095-0.149-0.187-0.3-0.275-0.449l-0.05,0.024c-0.435-0.598-0.844-1.198-1.225-1.8
		c-1.635-2.652-2.718-5.402-3.25-8.25c-0.011-0.034-0.019-0.067-0.025-0.1c-0.122-0.683-0.214-1.374-0.275-2.076
		c-0.001-0.023-0.001-0.048,0-0.074C92.167,246.504,92.158,246.379,92.15,246.25z M434.449,277.199
		c-0.201-0.691-0.443-1.316-0.725-1.875c-0.373-0.738-0.814-1.363-1.324-1.875c-2-2-5.117-3-9.351-3c-4.467,0-7.967,0.75-10.5,2.25
		c-1.7,1.034-3.283,2.717-4.75,5.051c-1.733,2.699-3.017,4.434-3.851,5.199c-1.832,1.634-4.383,2.551-7.649,2.75
		c-1.579-1.076-2.954-2.443-4.125-4.1c0.062,0.026,0.153,0.06,0.274,0.1c2.434-1.5,4.018-3.433,4.75-5.799
		c0.334-1.167,0.5-3.084,0.5-5.75c0-2.533-1.283-4.717-3.85-6.551c-2.4-1.732-5.199-2.684-8.4-2.85
		c-3.399-0.167-6.199,0.666-8.399,2.5c-2.566,2.1-3.851,5.267-3.851,9.5c0,3.1,2.584,6.783,7.75,11.05c3,2.5,4.784,4.017,5.351,4.55
		c1.601,1.6,2.399,2.967,2.399,4.1c0,0.168-0.666,1.534-2,4.101c-1.332,2.567-2,4.067-2,4.5c0,1.767,0.418,3.05,1.25,3.851
		c2,1.866,6.201,2.799,12.601,2.799c4.833,0,8.8-1.549,11.899-4.649c2.134-2.134,4.217-5.533,6.25-10.2
		c2.434-5.666,4.051-9.083,4.851-10.25c0.369-0.553,0.753-1.053,1.149-1.5c1.848-2.1,4.031-3.15,6.551-3.15
		c0.333,0,1.05,0.034,2.15,0.101C432.533,278.017,433.55,277.733,434.449,277.199z M197.725,372.75
		c0.286-0.102,0.569-0.243,0.85-0.426c0.293,0.334,0.718,0.592,1.275,0.775c-0.106,0.033-0.223,0.051-0.35,0.051
		C199.071,373.15,198.479,373.017,197.725,372.75z M93.375,258.225c-0.888-3.475-1.346-5.532-1.375-6.175
		c0.678,1.354,1.887,3.262,3.625,5.726c0.313,0.445,0.646,0.912,1,1.399c-0.033,0.026-0.066,0.052-0.1,0.075
		c-0.301,0.266-0.509,0.55-0.625,0.85v0.025c-0.729-1.217-1.612-2.191-2.65-2.926C93.289,257.544,93.33,257.886,93.375,258.225z
		 M91.675,246.3c-0.014,0.142-0.031,0.274-0.05,0.399c-0.639-0.002-1.297-0.002-1.975,0C89.65,246.608,90.325,246.475,91.675,246.3z
		 M91.625,246.75c-0.088,0.9-0.154,1.625-0.2,2.175c-0.026,0.012-0.051,0.021-0.075,0.024l-0.15-0.299
		c-0.133-0.234-0.2-0.601-0.2-1.101s0.083-0.767,0.25-0.8C91.383,246.765,91.508,246.765,91.625,246.75z M140.425,75.7
		c-0.3-0.238-0.625-0.488-0.975-0.75c-0.2-0.133-0.3-0.233-0.3-0.3v-0.025c1.073-0.425,2.223-0.867,3.45-1.325
		C141.755,74.242,141.03,75.042,140.425,75.7z M108.6,185.65c0,0.5,0.333,1.25,1,2.25c0.667,1.033,1,1.733,1,2.1
		c0,0.533-0.117,0.917-0.35,1.15c-0.1,0.167-0.267,0.333-0.5,0.5c-5.9-0.633-9.667,0.333-11.3,2.9c-0.466,0.733-0.7,2.267-0.7,4.6
		c0,4.433,0.667,8.549,2,12.35c2.533,7.434,7.033,11.15,13.5,11.15c6.867,0,11.033-0.301,12.5-0.9c0.833-0.301,1.25-1.301,1.25-3
		c0-2-0.75-3.983-2.25-5.95s-2.25-3.233-2.25-3.8c0-2.434,1.217-4.301,3.65-5.6c1.633-0.834,4.333-1.601,8.1-2.301
		c4.133-0.8,6.833-1.45,8.1-1.95c2.433-0.967,3.65-2.417,3.65-4.35c0-1.533-0.167-2.6-0.5-3.2c-0.567-0.967-1.9-1.9-4-2.8
		l-12.9-0.25c-1.067-0.9-1.4-2.6-1-5.1c0.433-2.566,0.233-4.283-0.6-5.15c-3.667,0-5.5,0.083-5.5,0.25
		c-6.934,1.9-10.833,3.1-11.7,3.6C109,182.583,108.6,183.75,108.6,185.65z M123.4,92.55c0.037-0.003,0.07-0.003,0.1,0
		c1.433-1.033,2.65-1.85,3.65-2.45c1.005-0.61,2.205-1.052,3.6-1.325c1.189-0.25,2.522-0.375,4-0.375c1.667,0,3.383,1.833,5.15,5.5
		c0.682,1.397,1.29,2.581,1.825,3.55c1.033,1.87,1.792,2.937,2.275,3.2h4.5c0.109-0.027,1.268-0.902,3.475-2.625
		c0.474-0.365,0.999-0.774,1.575-1.225c2.034-1.612,4.126-2.621,6.275-3.025c0.733-0.15,1.475-0.225,2.225-0.225
		c0.907,0,1.74,0.1,2.5,0.3c1.356,0.336,2.473,0.987,3.35,1.95c0.719,0.781,1.552,2.298,2.5,4.55c0.069,0.144,0.135,0.293,0.2,0.45
		c0.304,0.72,0.612,1.378,0.925,1.975c0.698,1.344,1.406,2.353,2.125,3.025c1.6,1.5,3.883,2.25,6.85,2.25
		c2.029,0,3.771-0.191,5.225-0.575c1.406-0.357,2.548-0.891,3.425-1.6c0.199-0.146,0.382-0.304,0.55-0.475
		c1.034-1,1.55-2.25,1.55-3.75c0-0.817-0.025-1.6-0.075-2.35c-0.204-2.828-0.778-5.228-1.725-7.2c-1.633-3.5-4.7-6.684-9.2-9.55
		c-7.267,0.1-11.434,0.017-12.5-0.25c0-0.6,0.667-2.033,2-4.3c1.333-2.267,2-3.9,2-4.9c0-1.167-0.167-1.983-0.5-2.45
		c-0.6-0.833-1.934-1.533-4-2.1L154.5,68.4c-1.8,0.588-3.458,1.138-4.975,1.65c-0.505,0.17-0.997,0.337-1.475,0.5
		c-1.415-0.34-2.857,0.177-4.325,1.55c-1.577,0.583-2.844,1.083-3.8,1.5c1.213-1.214,3.821-3.381,7.825-6.5
		c3.523-2.724,6.481-4.765,8.875-6.125c-1.524,0.412-3.016,0.854-4.475,1.325c1.467-1.3,4.233-2.633,8.3-4
		c4.967-1.633,7.917-1.383,8.85,0.75c0.3,0.667,0.167,1.55-0.4,2.65c-0.633,1.267-0.95,2.083-0.95,2.45
		c0.034,1.667,3.85,2.5,11.45,2.5c1.067,0,3.033-0.5,5.9-1.5c2.7-1,4.067-1.5,4.1-1.5c0.533,0,0.883,0.033,1.05,0.1
		c0.2,0.133,0.4,0.233,0.6,0.3l0.25,0.75c-1.8,1.733-3.233,3.083-4.3,4.05c-1.9,1.767-3.767,3.283-5.6,4.55
		c0.933,0.667,1.683,1.117,2.25,1.35c0.933,0.433,2.55,0.65,4.85,0.65c1.833,0,3.333-0.367,4.5-1.1c1.167-0.767,2.467-1.15,3.9-1.15
		c2.267,0,3.617,1.017,4.05,3.05c-0.033,2.1-0.05,3.167-0.05,3.2c0,3.333-0.85,6.067-2.55,8.2c-1.7,2.167-2.55,4-2.55,5.5
		c0,1.3,0.133,2.417,0.4,3.35c0.633,2.233,1,3.55,1.1,3.95c0.434,2.067,0.75,3.217,0.95,3.45c0.933,1.333,3.033,2.183,6.3,2.55
		l0.1,0.4c-1.667,0.333-3.4,1.083-5.2,2.25c-2.9,1-8.667,1.5-17.3,1.5c-5.5,0-9.167-1.333-11-4c-0.467-0.667-0.983-1.583-1.55-2.75
		c-0.567-0.833-1.3-1.25-2.2-1.25c-4.233,0-7.4,0.617-9.5,1.85c-1.5,0.867-2.25,1.833-2.25,2.9c0,0.867,0.867,2.167,2.6,3.9
		c1.7,1.7,2.55,3.333,2.55,4.9c0,0.933-0.083,1.5-0.25,1.7c-0.233,0.233-0.95,0.35-2.15,0.35c-1.6,0-3.783-0.417-6.55-1.25
		c-2.767-0.833-4.417-1.25-4.95-1.25l-9.1,0.15c-1.467,2.133-3.433,3.383-5.9,3.75h-7c-2.067-1.6-3.267-2.7-3.6-3.3
		c-0.167-0.3-0.25-1.167-0.25-2.6c0-1.533,1.15-3.583,3.45-6.15c2.7-2.967,4.3-5.167,4.8-6.6c-0.667-0.233-1.367-0.683-2.1-1.35
		c-1.133-0.6-3.433-1.1-6.9-1.5h-0.1c-0.1-0.033-0.15-0.3-0.15-0.8c0-0.56,0.017-0.885,0.05-0.975
		c-0.249-0.15,0.018-0.225,0.8-0.225c0.31,0,0.618,0.008,0.925,0.025C121.952,94.967,122.477,93.792,123.4,92.55z M141.25,173.9
		c2.6,2.033,5.367,3.367,8.3,4l16.75-0.1c0.533-0.333,1.033-0.617,1.5-0.85c0.9-0.433,1.684-0.7,2.35-0.8
		c0.267-0.333,0.4-0.083,0.4,0.75c0,1.033-3.233,2.833-9.7,5.4c-6.467,2.6-9.7,4.7-9.7,6.3c0,0.3,1.167,1.466,3.5,3.5
		c2.333,2,3.5,3.65,3.5,4.95c0,1.767-1.083,3.317-3.25,4.649c-0.5,0.301-2.883,1.4-7.15,3.301c-6.967,3.066-10.45,7.267-10.45,12.6
		c0,0.733,0.583,1.384,1.75,1.95c1.367,0.667,3.15,1,5.35,1c1.9,0,3.433-0.667,4.6-2c1.1-1.267,1.45-2.601,1.05-4
		c0-0.267,0.033-0.433,0.1-0.5c0.133-0.167,0.467-0.25,1-0.25c0.9,0,1.45,0.55,1.65,1.649c0,1.134,0,1.734,0,1.801
		c0,2.066-1.167,4.5-3.5,7.3c-3.133,3.667-7.1,5.5-11.9,5.5c-2.233,0-4.8-0.967-7.7-2.899c-2.833-1.867-5.3-2.734-7.4-2.601h-5.9
		c-9.4,4.866-14.1,8.783-14.1,11.75c0,1.067,1.25,2.184,3.75,3.351c2.367,1.1,5.367,2.033,9,2.799l0.25,0.75
		c-0.633,0.668-1.583,1.284-2.85,1.851c-1.566,0.7-3.417,1.167-5.55,1.399h-4c-3.233-3.1-5.65-5.716-7.25-7.85
		c-2.4-3.199-3.6-6.017-3.6-8.449c0-0.9,0.333-3.117,1-6.65c0.667-3.533,1-6.184,1-7.95c0-3.233-0.5-6.417-1.5-9.55
		s-1.5-6.383-1.5-9.75c0-4.967,1.067-8.6,3.2-10.9c1.133-1.233,1.85-2.15,2.15-2.75c0.667-1.267,1-3,1-5.2
		c0-1.267,1.433-2.933,4.3-5c3.4-2.4,6.967-3.517,10.7-3.35l24.75,0.1C137.583,170.55,138.95,172.133,141.25,173.9z M118.55,236.05
		c0-0.267,0.117-0.517,0.35-0.75c0.267,0.233,0.4,0.684,0.4,1.351c1.333-0.234,2.767,0.133,4.3,1.1c1.8,1.1,4.033,1.65,6.7,1.65
		c5.133,0,10.133-1.317,15-3.951c3.2-1.766,7.2-4.666,12-8.699c5.3-4.5,8.983-7.417,11.05-8.75c4.167-2.633,8.183-3.95,12.05-3.95
		c5.367,0,9.95,1.634,13.75,4.899c3,3.467,4.8,5.418,5.4,5.851h6.35c0.367-0.366,0.617-0.75,0.75-1.149
		c0.1-0.334,0.15-0.834,0.15-1.5c0-1.067-0.767-2.951-2.3-5.65c-1.567-2.733-2.35-5.283-2.35-7.65c0-1.934,0.933-3.633,2.8-5.1
		c2.934-2.367,7.917-3.817,14.95-4.35c2.333,0.233,5.033,1.25,8.1,3.049c1.333,0.734,4.167,2.584,8.5,5.551
		c7.6,5.199,13.733,7.8,18.4,7.8l6.25-0.149c1.233-0.867,2.8-2.801,4.7-5.801c1.867-2.967,2.8-4.967,2.8-6
		c0-0.666-0.333-1.166-1-1.5c-0.833-0.4-1.367-0.967-1.6-1.7c0-0.067,0.033-0.117,0.1-0.15c0.167-0.133,0.5-0.2,1-0.2
		c2.767,0,5.383,2.583,7.85,7.75c1.934,5.2,2.9,7.817,2.9,7.851c0,3.899-1.167,6.616-3.5,8.149c-1.333,0.866-3.917,1.616-7.75,2.25
		c-3.667,0.634-6.25,1.517-7.75,2.649c-2.333,1.867-3.5,5-3.5,9.4c0,0.768,0.5,1.801,1.5,3.1c1.267,1.668,2.767,2.5,4.5,2.5
		c5.533,0,9.383-0.933,11.55-2.799c0.667-0.601,1.133-1.268,1.4-2c0.133-0.367,0.2-0.701,0.2-1c0-1.101-0.75-2.101-2.25-3
		c-1.5-0.9-2.25-1.5-2.25-1.801c0-0.533,0.233-0.916,0.7-1.15c0.633-0.366,1.85-0.549,3.65-0.549h3.5
		c2.133,0.6,3.899,2.433,5.299,5.5c1.134,2.433,1.701,4.549,1.701,6.35c0,1.967-1.417,4.684-4.25,8.15c-3.834,4.666-8.584,7-14.25,7
		c-3.933,0-6.817-0.734-8.65-2.201c-1.267-0.966-2.217-2.549-2.85-4.75c-0.733-2.633-1.317-4.232-1.75-4.799
		c-1.033-1.467-2.833-2.201-5.4-2.201c-3.8,0-6.417,1.201-7.85,3.601c-0.7,1.233-1.033,2.483-1,3.75c0,1.833,0.333,3.75,1,5.75
		c0.667,1.967,1,3.366,1,4.2c0,2.767-0.95,5.733-2.85,8.9c-2.933,4.833-7.233,7.25-12.9,7.25c-4.267,0-8.95-1.867-14.05-5.601
		c-4.034-3-7.133-6.116-9.3-9.351c-1.433-2.199-4.483-4.533-9.15-7c-2.667-1.433-6.95-3.683-12.85-6.75
		c-2.433,0.367-7.15,2.067-14.15,5.101c-5.967,2.601-12.05,3.899-18.25,3.899c-3.433,0-7.483-1.383-12.15-4.149
		c-3.867-2.333-6.317-4.283-7.35-5.851c-1.333-2-3.383-4.466-6.15-7.399c-2.133-2.2-3.2-3.616-3.2-4.25V236.05z M203.85,231.8
		c-3.267-2.601-8.75-3.899-16.45-3.899c-3.433,0-9.517,2.866-18.25,8.6c-4.367,2.867-8.533,5.833-12.5,8.9
		c-0.2,0.199,0.117,0.299,0.95,0.299c2.8-1.133,5.816-2.266,9.05-3.399c6.5-2.267,12.05-3.399,16.65-3.399c3.3,0,6.767,1,10.4,3
		c3.8,2.033,5.95,4.217,6.45,6.549c1.2,5.301,2.583,8.434,4.15,9.4c1.167,0.7,4.867,1.051,11.1,1.051
		c5.933,0,10.517-2.317,13.75-6.951c2.267-3.199,3.4-6.133,3.4-8.799c0-0.434-0.167-0.984-0.5-1.65c-0.333-0.7-0.5-1.25-0.5-1.65
		c0-1.232,1-2.3,3-3.199c1.033-0.467,3.217-1.15,6.55-2.051c6.367-1.767,9.55-3.85,9.55-6.25c0-0.934-1.75-2.166-5.25-3.699
		c-3.467-1.5-7.333-2.75-11.6-3.75c-11.267-2.601-16.9-1.717-16.9,2.649c0,1.366,0.8,3.184,2.4,5.45
		c1.567,2.233,2.35,3.85,2.35,4.85c0,0.634-0.967,1.334-2.9,2.1c-2.533,1-5.767,1.451-9.7,1.351c-0.6-0.366-1.367-1.167-2.3-2.399
		C205.683,233.533,204.717,232.5,203.85,231.8z"/>
</g>
<g id="PlanetStroke">
	
		<path fill-rule="evenodd" clip-rule="evenodd" fill="none" stroke="#000000" stroke-width="5" stroke-linecap="round" stroke-linejoin="round" stroke-miterlimit="3" d="
		M452.949,204.1c0,50.7-17.916,93.967-53.75,129.801c-35.832,35.833-79.1,53.75-129.799,53.75c-50.7,0-93.967-17.917-129.8-53.75
		C103.767,298.066,85.85,254.8,85.85,204.1c0-50.7,17.917-93.966,53.75-129.8c35.833-35.833,79.1-53.75,129.8-53.75
		c50.7,0,93.967,17.917,129.799,53.75C435.033,110.133,452.949,153.4,452.949,204.1z"/>
</g>
<g id="Layer_6">
	<path fill-rule="evenodd" clip-rule="evenodd" fill-opacity="0.298" d="M123.4,92.55c3.557,95.7,34.741,171.142,93.55,226.325
		c13.681,12.838,28.856,24.58,45.525,35.225c16.297,10.406,34.022,19.765,53.175,28.075c-14.663,3.649-30.08,5.476-46.25,5.476
		c-50.7,0-93.967-17.917-129.8-53.75C103.767,298.066,85.85,254.8,85.85,204.1c0-41.909,12.242-78.742,36.725-110.5
		C122.847,93.248,123.122,92.898,123.4,92.55z"/>
	
		<line fill-rule="evenodd" clip-rule="evenodd" fill="none" stroke="#FFFFFF" stroke-width="5" stroke-linecap="round" stroke-linejoin="round" stroke-miterlimit="3" x1="122.575" y1="93.6" x2="121.25" y2="91.8"/>
	
		<path fill-rule="evenodd" clip-rule="evenodd" fill="none" stroke="#000000" stroke-width="5" stroke-linecap="round" stroke-linejoin="round" stroke-miterlimit="3" d="
		M122.575,93.6c0.272-0.352,0.547-0.702,0.825-1.05"/>
	<g>
		<path fill-rule="evenodd" clip-rule="evenodd" fill="#FFFFFF" fill-opacity="0.2" d="M347.3,74
			c-7.533,4.367-10.816,13.55-9.851,27.55c1,13.967,5.951,28.65,14.851,44.05c8.899,15.433,19.149,27.066,30.75,34.9
			c11.634,7.867,21.217,9.617,28.75,5.25c7.533-4.333,10.817-13.5,9.851-27.5s-5.9-28.717-14.801-44.15
			c-8.9-15.4-19.166-27-30.8-34.8C364.416,71.433,354.833,69.667,347.3,74z M374.75,62.8c15.867,10.333,29.867,25.717,42,46.15
			c12.133,20.467,18.85,40,20.15,58.6c1.333,18.567-3.134,30.717-13.4,36.45c-10.267,5.8-23.334,3.483-39.2-6.95
			c-15.8-10.4-29.767-25.833-41.899-46.3c-12.134-20.434-18.884-39.917-20.25-58.45c-1.301-18.566,3.183-30.75,13.449-36.55
			C345.867,50.017,358.916,52.367,374.75,62.8z"/>
		<path fill-rule="evenodd" clip-rule="evenodd" fill="#FFFFFF" fill-opacity="0.4" d="M347.3,74
			c7.533-4.333,17.116-2.567,28.75,5.3c11.634,7.8,21.899,19.4,30.8,34.8c8.9,15.433,13.834,30.15,14.801,44.15
			s-2.317,23.167-9.851,27.5c-7.533,4.367-17.116,2.617-28.75-5.25c-11.601-7.833-21.851-19.467-30.75-34.9
			c-8.899-15.4-13.851-30.083-14.851-44.05C336.483,87.55,339.767,78.367,347.3,74z"/>
	</g>
</g>
</svg>
